<?xml version="1.0" standalone="no"?>
<!DOCTYPE svg PUBLIC "-//W3C//DTD SVG 20010904//EN"
 "http://www.w3.org/TR/2001/REC-SVG-20010904/DTD/svg10.dtd">
<svg version="1.0" xmlns="http://www.w3.org/2000/svg"
 width="1500.000000pt" height="1500.000000pt" viewBox="0 0 1500.000000 1500.000000"
 preserveAspectRatio="xMidYMid meet">
<metadata>
Created by potrace 1.11, written by Peter Selinger 2001-2013
</metadata>
<g transform="translate(0.000000,1500.000000) scale(0.100000,-0.100000)"
fill="#000000" stroke="none">
<path d="M8443 12020 c3 -10 -1 -24 -9 -31 -8 -6 -14 -16 -14 -21 0 -14 -23
-34 -47 -42 -17 -5 -22 -1 -28 21 -7 28 -7 28 -16 5 -5 -13 -16 -55 -25 -95
-9 -40 -21 -85 -28 -102 l-13 -30 -15 29 -15 28 -33 -53 c-24 -40 -33 -67 -35
-108 -2 -31 -4 -59 -4 -64 -1 -4 -12 -5 -25 -1 -20 5 -24 2 -22 -13 2 -10 1
-22 -3 -28 -7 -12 -12 -33 -15 -60 -4 -36 -17 -65 -30 -65 -8 0 -27 14 -44 31
l-30 31 -22 -49 c-14 -30 -23 -71 -25 -108 -2 -60 -39 -194 -58 -206 -5 -4
-24 -3 -41 2 -17 5 -32 9 -34 9 -2 0 -2 -22 -1 -50 2 -43 0 -52 -24 -71 l-28
-21 -20 26 c-16 20 -26 25 -44 20 -28 -7 -24 -12 -78 130 -29 77 -35 87 -48
74 -29 -29 -48 -28 -66 2 -16 27 -25 34 -44 32 -6 -1 -35 85 -41 122 -4 28
-24 30 -47 7 -28 -28 -38 -26 -56 9 -9 17 -13 30 -10 30 3 0 -1 10 -9 23 -8
12 -17 38 -21 57 -7 32 -40 79 -56 80 -4 0 -9 -9 -12 -20 -5 -19 -37 -29 -37
-12 0 4 -29 38 -64 75 -35 37 -62 67 -59 67 2 0 -6 10 -19 23 -23 23 -85 97
-97 115 -3 5 -26 20 -51 32 -25 13 -59 34 -77 47 -24 19 -33 21 -39 11 -11
-17 -11 -49 -1 -71 27 -59 26 -307 -1 -407 -19 -72 -27 -81 -59 -69 -14 5 -27
8 -29 7 -1 -2 -5 -26 -9 -53 -3 -28 -7 -59 -9 -70 -3 -11 -5 -32 -5 -47 -1
-35 -9 -35 -45 -1 -35 32 -83 38 -97 11 -15 -29 -25 -22 -54 40 -15 31 -49 87
-76 124 -27 37 -49 74 -49 82 0 7 -12 16 -26 19 -24 4 -29 -1 -50 -49 -13 -30
-24 -60 -24 -66 0 -25 -26 -85 -60 -139 l-36 -56 -34 16 c-19 9 -36 19 -38 24
-7 14 -32 7 -44 -13 -7 -11 -18 -20 -24 -20 -6 0 -40 32 -75 70 -35 39 -69 70
-76 70 -7 0 -13 4 -13 9 0 11 -26 22 -61 27 -25 3 -37 -13 -62 -88 -8 -22 -30
-23 -46 -4 -7 8 -35 20 -64 26 -29 7 -58 17 -65 23 -9 7 -11 6 -7 -4 3 -8 -1
-23 -8 -33 -12 -16 -17 -17 -58 -5 -24 7 -46 16 -49 20 -10 13 -51 30 -59 25
-5 -3 -20 3 -34 14 -19 15 -35 19 -59 15 -45 -8 -44 -8 -47 -65 -1 -38 -21
-39 -85 -5 -26 14 -68 30 -94 37 -26 6 -65 19 -88 29 -22 9 -68 17 -102 18
-67 1 -66 1 -76 -69 -1 -14 -7 -23 -12 -21 -43 18 -127 28 -254 31 -100 3 -96
4 -97 -27 -2 -73 5 -67 -101 -87 -99 -18 -184 -25 -342 -30 -47 -1 -90 -5 -96
-8 -5 -4 -27 -9 -49 -13 -44 -7 -86 -24 -97 -40 -4 -5 -8 -6 -8 -2 0 11 -90
-94 -90 -105 0 -4 8 -9 18 -10 19 -1 23 -2 72 -12 19 -4 42 -8 50 -9 45 -7
114 -64 180 -147 19 -25 47 -57 62 -72 16 -14 28 -33 28 -42 0 -9 5 -16 10
-16 20 0 9 -26 -22 -51 l-32 -27 102 -101 c56 -56 102 -105 102 -110 0 -5 -10
-15 -22 -24 -13 -8 -35 -25 -50 -38 l-27 -24 34 -37 c19 -20 56 -49 82 -64 26
-15 55 -34 63 -41 42 -38 76 -63 85 -63 25 0 34 -22 18 -46 -8 -13 -12 -24 -9
-24 3 0 -5 -18 -19 -40 -14 -22 -22 -40 -19 -40 4 0 1 -6 -5 -14 -10 -12 3
-20 75 -47 58 -22 88 -39 92 -51 3 -12 15 -19 36 -20 17 0 36 -2 41 -3 6 -2
18 -3 28 -4 9 0 26 -10 36 -20 20 -20 19 -20 -15 -57 -37 -41 -44 -73 -16 -75
44 -3 69 -6 78 -12 5 -3 30 -8 54 -12 25 -4 47 -8 49 -10 2 -3 12 0 22 5 19
11 37 -4 19 -15 -15 -9 7 -45 28 -45 22 0 48 -39 30 -44 -21 -7 -72 -19 -88
-22 -8 -2 -48 -12 -87 -22 -40 -11 -73 -18 -73 -15 0 3 -6 0 -14 -6 -13 -11
-12 -18 6 -49 12 -20 38 -57 58 -82 53 -65 75 -110 59 -121 -8 -5 -26 4 -51
27 -24 21 -52 36 -78 40 -22 4 -42 10 -45 14 -3 4 -23 4 -45 0 -36 -7 -46 -4
-88 26 -49 35 -115 90 -164 136 -42 39 -81 66 -103 70 -11 1 -22 6 -25 10 -3
3 -29 11 -58 16 -72 13 -83 0 -117 -144 -14 -63 -30 -112 -33 -110 -10 6 -160
75 -210 97 -33 14 -52 17 -87 10 -24 -5 -47 -6 -50 -3 -3 3 -6 0 -6 -6 -1 -7
-3 -15 -4 -19 -1 -5 -5 -27 -10 -49 -8 -45 -1 -43 -95 -30 -108 15 -211 17
-265 5 -33 -7 -63 -13 -67 -13 -13 -2 -21 -16 -9 -16 7 0 11 -10 10 -22 -2
-24 9 -76 20 -93 4 -5 7 -17 6 -25 -1 -19 -46 -16 -94 7 -18 8 -39 16 -45 17
-6 1 -17 5 -23 9 -7 5 -13 6 -13 4 0 -2 -21 -1 -46 3 -43 7 -45 6 -39 -14 25
-85 17 -108 -36 -104 -21 1 -39 5 -39 8 0 7 -1 7 -83 15 -45 3 -66 11 -96 35
-25 21 -52 33 -78 35 -48 3 -74 -8 -56 -26 6 -6 9 -18 6 -25 -3 -8 2 -32 11
-54 l16 -40 -28 0 c-15 0 -33 5 -40 12 -7 7 -12 9 -12 5 0 -3 -11 -2 -25 3
-19 7 -25 6 -25 -5 0 -33 -6 -32 -183 41 -68 28 -120 25 -92 -6 15 -16 38
-120 29 -129 -7 -7 -87 -5 -119 3 -37 10 -89 10 -110 2 -11 -4 -15 -16 -13
-37 3 -27 -1 -32 -21 -36 -13 -2 -29 -10 -35 -17 -13 -17 -72 -16 -103 2 -13
7 -35 10 -49 8 -15 -3 -34 -1 -43 3 -9 5 -34 11 -56 14 -22 3 -57 10 -78 15
-21 6 -46 9 -55 7 -9 -1 -27 3 -39 11 l-22 14 17 -31 c9 -18 26 -42 37 -54 11
-12 40 -50 65 -84 25 -34 57 -77 72 -94 57 -67 75 -94 112 -166 20 -41 48
-104 62 -140 14 -36 34 -76 46 -88 l21 -22 -29 -11 c-16 -6 -37 -9 -47 -6 -12
3 -21 -3 -26 -17 -5 -12 -6 -24 -2 -27 11 -9 49 -94 82 -185 18 -49 39 -97 46
-106 11 -13 9 -18 -15 -36 -31 -23 -65 -35 -102 -38 -20 -1 -25 -6 -26 -31 -1
-16 7 -43 17 -60 23 -38 92 -100 136 -122 18 -8 33 -19 33 -24 0 -4 4 -8 9 -8
29 0 131 -87 131 -112 0 -12 -48 -10 -71 3 -11 6 -41 12 -65 14 l-45 3 4 -63
5 -63 -32 9 c-17 5 -56 12 -86 15 -30 3 -73 7 -95 10 -70 8 -395 6 -395 -3 0
-2 9 -22 20 -46 26 -56 51 -126 56 -160 3 -15 16 -52 30 -82 13 -30 21 -55 18
-55 -3 0 4 -13 15 -29 12 -16 21 -36 21 -44 0 -13 -32 -27 -70 -31 -31 -4 -90
-32 -90 -43 0 -20 18 -52 52 -93 15 -19 28 -40 28 -46 0 -6 -28 -17 -63 -24
-63 -14 -71 -16 -84 -20 -5 -1 -11 -2 -15 -1 -5 0 -8 -2 -8 -6 0 -5 -14 -9
-31 -10 -17 -1 -36 -7 -43 -12 -6 -5 -23 -12 -37 -14 -13 -3 -45 -17 -71 -31
-26 -14 -55 -26 -65 -26 -16 -1 -16 -2 -2 -10 9 -5 32 -33 50 -62 18 -29 41
-60 51 -69 10 -9 18 -21 18 -27 0 -6 8 -17 18 -24 38 -27 35 -38 -15 -60 -26
-12 -50 -23 -53 -23 -113 -20 -139 -46 -93 -93 23 -23 15 -51 -20 -69 -17 -9
-37 -18 -43 -19 -5 -1 -30 -11 -54 -23 -24 -11 -49 -21 -56 -21 -6 0 -17 -7
-24 -15 -7 -8 -20 -15 -30 -15 -9 0 -29 -9 -44 -21 -14 -11 -26 -18 -26 -14 0
6 -17 -7 -55 -41 -13 -12 -30 -24 -37 -27 -8 -4 -7 -6 5 -6 9 -1 17 -4 17 -9
0 -4 14 -13 31 -21 42 -19 89 -71 86 -96 -3 -25 -74 -74 -104 -70 -32 3 -19
-12 17 -20 17 -4 30 -12 30 -20 0 -14 -82 -85 -99 -85 -7 0 -14 -7 -17 -15 -4
-8 -10 -12 -15 -9 -5 3 -9 1 -9 -4 0 -5 -24 -19 -54 -32 -32 -13 -58 -32 -64
-45 -9 -20 -8 -22 9 -18 10 3 19 0 19 -6 0 -6 6 -11 14 -11 8 0 27 -10 42 -23
24 -21 25 -26 14 -47 -7 -13 -37 -47 -66 -77 -30 -29 -54 -57 -54 -63 0 -5
-15 -20 -34 -32 -29 -19 -75 -71 -48 -54 6 3 22 2 36 -4 22 -8 26 -15 22 -37
-3 -14 -9 -29 -14 -32 -5 -3 -22 -26 -37 -51 -16 -25 -66 -82 -112 -127 l-84
-82 25 -38 c14 -21 30 -53 37 -70 12 -35 12 -35 104 -34 28 1 63 2 80 2 16 0
34 4 40 9 14 11 95 20 95 11 0 -5 10 -7 23 -5 30 5 92 -27 92 -49 0 -9 5 -17
10 -18 6 0 18 -5 28 -10 9 -6 32 -12 50 -14 17 -2 46 -6 62 -10 95 -20 144
-24 177 -14 37 10 40 -4 22 -100 l-7 -34 39 6 c37 7 61 11 109 21 11 2 47 11
80 19 33 9 76 17 96 20 20 2 41 7 45 10 5 2 19 1 31 -4 16 -6 20 -13 16 -30
-5 -18 -3 -20 15 -14 73 23 123 16 115 -15 -3 -11 0 -26 6 -33 6 -8 8 -17 4
-21 -4 -4 -8 -39 -10 -77 -2 -63 0 -70 15 -64 9 4 27 9 38 11 12 2 37 10 55
17 19 8 52 12 74 11 52 -4 135 16 135 33 0 15 47 17 70 3 9 -5 19 -5 27 1 6 6
22 9 35 7 17 -2 23 -10 24 -33 0 -17 6 -40 11 -50 6 -11 9 -30 7 -43 -3 -16 1
-22 15 -22 11 0 23 5 26 10 3 6 14 10 24 10 9 0 33 14 51 30 18 17 38 30 44
31 6 0 20 2 31 4 66 13 69 12 75 -25 4 -20 10 -41 14 -48 4 -7 9 -30 11 -50 2
-20 7 -59 10 -87 4 -27 8 -60 9 -72 1 -23 16 -45 16 -24 0 19 22 37 65 51 54
19 62 20 128 30 31 4 63 12 70 18 10 7 39 18 77 27 3 0 16 7 30 15 78 45 130
60 130 39 0 -23 44 -99 57 -99 7 0 13 4 13 8 0 10 47 34 75 38 11 1 32 5 48 8
15 2 27 1 27 -4 0 -8 77 -42 83 -37 2 1 15 -6 30 -16 15 -9 27 -15 27 -12 0 7
25 -13 57 -48 15 -15 30 -27 35 -27 5 0 16 -7 24 -15 9 -8 20 -15 26 -15 6 0
9 3 5 6 -8 8 78 133 107 156 11 10 49 31 83 47 49 24 68 28 91 22 26 -8 31 -6
41 15 13 29 63 35 158 19 34 -6 52 -37 35 -58 -6 -7 -11 -15 -11 -20 0 -4 -9
-26 -19 -50 -21 -47 -37 -106 -27 -95 10 10 68 -29 71 -47 1 -9 -10 -42 -25
-73 -26 -51 -47 -125 -43 -144 1 -5 -3 -8 -8 -8 -16 0 -4 -45 20 -78 21 -28
22 -38 7 -107 -2 -11 -8 -42 -11 -70 -4 -27 -11 -63 -16 -80 -12 -39 -20 -80
-25 -131 -2 -22 -5 -45 -6 -50 -1 -5 -1 -26 0 -48 1 -38 1 -38 34 -31 17 3 46
9 62 12 17 3 52 13 79 24 120 45 206 45 191 -1 -9 -30 57 -25 87 7 12 13 38
34 58 46 19 11 37 24 40 28 13 18 85 23 400 25 184 1 362 2 396 3 58 1 63 3
118 51 61 54 80 60 91 33 5 -15 10 -13 35 17 15 19 26 38 24 42 -3 5 -1 8 4 8
5 0 14 11 20 24 8 18 16 22 36 19 15 -3 29 -9 32 -14 3 -5 18 -9 34 -9 18 0
47 -15 80 -41 28 -22 53 -39 54 -37 12 18 36 92 41 125 4 24 11 45 15 48 16
10 42 114 55 219 4 31 10 58 14 61 4 2 27 -9 52 -26 24 -16 49 -29 56 -29 16
0 63 58 80 98 7 17 19 32 26 32 16 0 117 -70 117 -81 0 -5 5 -9 11 -9 7 0 19
-9 28 -19 12 -14 33 -21 69 -23 29 -2 52 -6 52 -10 0 -5 5 -8 11 -8 7 0 27
-16 46 -35 19 -19 45 -38 58 -41 14 -3 25 -10 25 -15 0 -5 7 -9 15 -9 9 0 20
-12 26 -27 16 -43 43 -62 95 -67 26 -2 50 -10 54 -17 5 -7 33 -12 69 -13 48
-2 65 -6 81 -24 11 -11 20 -24 20 -27 0 -3 9 -15 20 -27 14 -16 20 -36 20 -71
0 -41 6 -58 33 -93 17 -24 36 -42 41 -41 4 2 14 20 21 41 30 85 116 123 236
102 l35 -7 -2 38 c-1 21 -3 38 -4 38 -9 0 -5 124 5 137 11 16 16 13 53 -31 23
-27 42 -52 42 -55 0 -3 9 -15 21 -27 30 -30 43 -12 33 43 -4 23 -7 47 -6 52 4
13 3 68 -1 103 -4 29 -3 31 15 22 15 -8 24 -7 37 5 20 18 82 21 98 5 6 -6 48
-13 93 -16 229 -15 413 124 466 353 18 78 22 85 91 143 8 7 16 3 27 -14 9 -14
13 -25 9 -25 -5 0 -3 -4 2 -8 6 -4 32 -41 57 -82 59 -94 78 -119 154 -194 73
-73 90 -88 174 -148 155 -111 274 -162 395 -173 44 -4 85 -6 90 -6 116 7 159
21 335 108 79 39 156 86 210 130 47 37 87 71 88 75 7 15 33 8 38 -10 7 -18 68
-144 87 -177 7 -11 31 -54 55 -95 124 -217 209 -302 402 -400 101 -51 233 -58
342 -19 35 13 65 25 68 29 3 3 23 14 45 25 22 11 54 34 70 50 33 33 46 49 215
263 14 18 34 32 45 32 11 0 47 -25 80 -55 33 -30 65 -55 72 -55 7 0 13 -5 13
-10 0 -6 8 -13 18 -17 19 -7 99 -60 121 -81 7 -7 74 -43 147 -79 123 -59 168
-73 244 -75 36 0 144 24 151 34 3 5 16 11 29 13 13 2 26 9 29 14 3 5 23 16 45
25 63 26 132 92 160 151 36 75 56 158 56 232 0 35 3 63 6 63 3 0 31 -20 62
-43 58 -45 192 -119 270 -150 23 -9 45 -25 48 -35 12 -36 58 -128 71 -140 7
-7 13 -16 13 -20 0 -11 111 -124 175 -178 90 -76 173 -128 240 -151 54 -19 76
-25 140 -37 11 -2 47 -11 80 -20 83 -23 120 -25 195 -10 78 15 134 38 177 70
17 13 36 24 41 24 6 0 12 3 14 8 2 4 26 26 54 49 28 24 57 56 64 72 13 32 6
31 120 14 60 -10 220 -10 300 0 88 11 139 17 177 22 94 12 189 52 236 99 36
36 116 183 116 213 0 112 11 258 20 261 6 2 11 9 11 16 0 7 9 22 20 34 12 12
18 22 15 22 -3 0 0 10 7 22 7 13 13 25 14 28 0 3 4 12 7 20 34 83 46 188 32
275 -4 28 -8 58 -9 67 -1 9 -19 50 -39 92 -29 58 -59 97 -130 168 -100 100
-132 128 -147 128 -6 0 -10 3 -10 8 0 4 -18 18 -40 32 -22 14 -40 28 -40 32 0
5 -7 8 -15 8 -8 0 -15 4 -15 9 0 5 -8 11 -17 14 -25 8 -75 39 -93 57 -8 9 -27
23 -43 33 l-27 18 25 27 c13 15 36 40 50 56 14 16 25 25 25 20 0 -8 31 53 60
121 15 33 16 36 25 84 3 19 8 38 11 43 3 4 1 8 -4 8 -5 0 -8 11 -7 23 3 26
-49 147 -63 147 -5 0 -14 11 -20 24 -9 20 -65 72 -152 139 -17 13 -106 50
-160 65 -69 20 -218 36 -330 34 -130 -2 -143 -3 -153 -9 -5 -3 -26 -7 -46 -9
-43 -4 -57 -8 -91 -21 -26 -11 -80 1 -80 17 0 5 -22 31 -50 58 -73 73 -174
107 -343 116 -21 1 -40 0 -42 -4 -2 -3 -34 -5 -72 -5 -61 0 -68 2 -65 19 2 10
14 29 28 43 13 13 24 31 24 39 0 8 4 13 8 10 5 -3 23 28 42 67 18 40 38 75 44
79 6 4 7 8 2 8 -5 0 -3 7 4 15 7 9 8 15 2 15 -26 0 20 111 54 133 7 4 16 22
20 40 4 17 8 34 9 37 1 3 5 19 10 35 4 17 11 35 15 40 13 17 24 78 21 115 -3
41 -28 108 -49 133 -8 9 -12 17 -9 17 4 0 -13 20 -36 45 -24 25 -49 45 -55 45
-7 0 -12 4 -12 8 0 10 -82 47 -135 61 -95 24 -135 28 -190 18 -16 -4 -43 -8
-60 -11 -16 -3 -61 -15 -100 -27 -38 -12 -92 -24 -120 -26 -49 -4 -51 -3 -80
38 -17 23 -29 50 -27 62 2 12 5 77 7 144 3 103 1 130 -17 180 -32 89 -88 158
-160 196 -52 28 -78 50 -78 66 0 6 -4 11 -10 11 -5 0 -10 6 -10 13 -1 20 -90
85 -168 124 -81 39 -152 61 -222 69 -64 7 -73 11 -67 34 3 11 1 20 -4 20 -6 0
-6 7 0 18 6 11 6 24 -1 36 -8 14 -8 17 2 11 8 -5 11 -3 8 6 -2 7 6 24 19 37
13 12 24 27 24 32 1 6 2 13 3 18 0 4 10 21 22 37 11 17 27 46 34 65 7 19 17
40 21 45 4 6 11 31 14 57 5 35 2 55 -13 85 -18 34 -62 82 -62 67 0 -4 -7 -1
-15 6 -16 13 -93 17 -131 7 -37 -9 -158 -59 -184 -76 -34 -21 -86 -63 -82 -67
13 -19 -21 -31 -102 -37 -28 -2 -45 4 -65 20 -14 13 -31 23 -37 23 -23 0 -24
32 -4 108 11 42 21 103 23 135 4 62 21 85 67 88 61 4 161 30 185 49 6 5 25 11
44 13 44 7 55 25 29 47 -18 14 -19 17 -4 29 9 7 16 11 16 8 0 -3 21 1 48 9 26
8 65 17 87 20 21 3 44 8 50 12 5 4 42 8 80 9 105 5 197 11 228 16 15 2 30 0
33 -4 3 -5 15 -4 27 3 12 7 25 11 30 10 4 -1 15 11 25 28 11 16 21 27 24 24 4
-3 24 1 46 8 31 11 39 17 32 28 -10 16 -3 33 10 25 5 -3 11 4 15 15 3 11 11
21 16 21 5 1 14 3 19 4 6 1 15 3 20 4 6 0 1 10 -11 22 -20 20 -20 21 -3 42 10
12 25 28 34 35 13 12 13 14 -2 23 -19 11 -25 68 -8 70 20 3 25 4 38 12 7 5 27
10 44 12 42 6 44 11 11 27 -19 9 -28 21 -30 41 -1 15 3 27 9 27 6 0 3 8 -6 19
-9 10 -19 31 -22 47 -7 38 -60 76 -126 89 -71 13 -86 17 -130 30 -27 8 -48 11
-48 8 0 -3 -6 -1 -12 4 -7 6 -31 14 -53 18 -22 4 -49 16 -61 28 -20 20 -32 22
-130 22 -88 0 -110 3 -115 15 -7 17 20 70 36 70 5 1 -4 7 -21 14 -34 15 -35
20 -17 101 14 64 7 78 -48 103 -28 12 -55 22 -60 22 -5 0 -19 5 -32 12 -12 6
-29 14 -37 18 -14 7 -21 63 -10 85 11 23 10 47 -2 42 -7 -2 -26 2 -42 10 -24
12 -27 19 -22 41 4 15 9 36 11 47 2 11 4 20 5 20 1 0 3 14 5 30 2 17 6 39 9
51 5 18 1 21 -25 22 -18 0 -40 11 -56 26 -14 14 -32 26 -39 26 -16 0 -16 2 -4
55 7 33 6 43 -9 60 -20 24 -20 27 3 80 9 22 20 53 23 68 6 27 4 28 -26 24 -17
-3 -34 -1 -37 4 -3 6 -17 14 -30 19 -16 6 -27 20 -31 41 -4 19 -14 34 -28 39
-35 13 -47 39 -45 94 1 31 -24 66 -47 66 -7 0 -13 5 -13 10 0 6 -6 10 -13 10
-7 0 -23 11 -35 25 -12 14 -19 25 -15 25 3 0 -1 8 -10 18 -9 10 -22 32 -28 50
-7 19 -28 42 -57 61 -26 17 -60 44 -76 61 -16 16 -61 51 -100 77 -39 27 -73
51 -74 56 -2 4 -8 5 -13 1 -5 -3 -9 0 -9 6 0 6 -4 9 -9 5 -5 -3 -12 -1 -15 4
-13 21 -72 28 -311 36 -220 8 -205 7 -240 4 -34 -3 -84 9 -103 24 -8 6 -48 12
-90 13 -93 2 -140 10 -168 29 -24 16 -58 14 -90 -3 -55 -30 -134 -15 -134 24
0 11 -6 13 -22 8 -59 -19 -114 17 -139 93 -7 23 -14 31 -19 23 -4 -7 -23 -14
-43 -16 -27 -3 -40 1 -58 21 -13 13 -31 25 -41 25 -17 0 -69 64 -90 110 -9 21
-18 26 -48 26 -20 0 -43 3 -52 6 -14 6 -68 101 -68 121 0 4 -6 15 -14 22 -8 8
-28 54 -46 102 -17 48 -39 96 -48 107 -9 10 -16 21 -16 25 2 8 -5 27 -32 89
-24 51 -41 70 -31 32z"/>
</g>
</svg>
