<svg xmlns="http://www.w3.org/2000/svg" viewBox="0 0 74.37 50.25"><defs><style>.cls-1{fill:none;stroke:#171234;stroke-linecap:round;stroke-linejoin:round;stroke-width:2px;}</style></defs><title>Risorsa 2</title><g id="Livello_2" data-name="Livello 2"><g id="content"><path class="cls-1" d="M68.09,21.91a9.23,9.23,0,0,0-1.17-2.43l-1.59-2.4,6.43-1.61a1.61,1.61,0,0,0,1.61-1.6V10.65A1.61,1.61,0,0,0,71.76,9h-8L60.5,13.87l-4.82,1.6h-37l-4.82-1.6L10.65,9h-8A1.61,1.61,0,0,0,1,10.65v3.22a1.61,1.61,0,0,0,1.61,1.6L9,17.08l-1.59,2.4a9.6,9.6,0,0,0-1.63,5.35v9.94a4.83,4.83,0,0,0,4.83,4.83H42.81"/><path class="cls-1" d="M12.26,12.26s4.08-8.78,4.82-9.65A4.67,4.67,0,0,1,20.3,1H54.07a4.67,4.67,0,0,1,3.22,1.61c.74.87,4.82,9.65,4.82,9.65"/><path class="cls-1" d="M10.65,21.91l.86.86a8,8,0,0,0,5.69,2.35h4.71"/><path class="cls-1" d="M7.43,38v6.43A1.61,1.61,0,0,0,9,46H20.3a1.61,1.61,0,0,0,1.61-1.61V39.6"/><line class="cls-1" x1="42.81" y1="31.56" x2="21.91" y2="31.56"/><circle class="cls-1" cx="52.46" cy="31.56" r="4.82"/><path class="cls-1" d="M66.94,49.25h0a4.83,4.83,0,0,1-4.83-4.83h0a4.82,4.82,0,0,1,4.83-4.82h0a4.82,4.82,0,0,1,4.82,4.82h0A4.82,4.82,0,0,1,66.94,49.25Z"/><line class="cls-1" x1="50.85" y1="49.25" x2="68.54" y2="26.73"/></g></g></svg>