<svg xmlns="http://www.w3.org/2000/svg" viewBox="0 0 78.2 78.86"><defs><style>.cls-1,.cls-2{fill:none;stroke:#171234;stroke-width:2px;}.cls-1{stroke-miterlimit:10;}.cls-2{stroke-linejoin:round;}</style></defs><title>Risorsa 2</title><g id="Livello_2" data-name="Livello 2"><g id="content"><polyline class="cls-1" points="25.85 39.1 1 39.1 1 1 77.2 1 77.2 39.1 58.98 39.1"/><path class="cls-1" d="M59,32.48h6.63a5,5,0,0,1,5-5V12.6a5,5,0,0,1-5-5h-53a4.65,4.65,0,0,1-5,5V27.51a5,5,0,0,1,5,5H25.85"/><line class="cls-2" x1="19.22" y1="20.88" x2="22.54" y2="20.88"/><line class="cls-2" x1="54.01" y1="20.88" x2="57.33" y2="20.88"/><path class="cls-2" d="M31.44,24.19a9.07,9.07,0,0,1-.62-3.32c0-4.57,3.34-8.28,7.46-8.28s7.46,3.72,7.45,8.29a9,9,0,0,1-.62,3.31"/><path class="cls-2" d="M35.79,34.13a3.32,3.32,0,0,0-6.63,0V50.28c0,4.44-2.3,6.14-2.3,6.14s-1-.43-2.53-4.2c-2.42-6.09-7.47-5-8.61-3.78s-.28,3.18,2.61,7.71c2,3.09,3.06,10.05,6.19,12.8s4.64,4.14,4.64,5.88v4"/><path class="cls-2" d="M42.42,49V27.51a3.32,3.32,0,1,0-6.63,0V49"/><path class="cls-2" d="M49,39.1V32.48a3.31,3.31,0,1,0-6.62,0"/><path class="cls-2" d="M52.36,78.86V74.43c0-2.52,3.31-3.79,3.31-8.87V39.1a3.32,3.32,0,0,0-6.63,0V49"/></g></g></svg>