<svg xmlns="http://www.w3.org/2000/svg" viewBox="0 0 84.16 74.58"><defs><style>.cls-1{fill:none;stroke:#171234;stroke-miterlimit:10;stroke-width:2px;}</style></defs><title>Risorsa 3</title><g id="Livello_2" data-name="Livello 2"><g id="content"><polyline class="cls-1" points="83.76 19.21 42.08 1.09 0.4 19.21"/><line class="cls-1" x1="81.95" y1="26.46" x2="2.21" y2="26.46"/><polyline class="cls-1" points="14.9 60.9 14.9 33.71 4.02 33.71 4.02 68.14"/><line class="cls-1" x1="11.27" y1="66.33" x2="72.89" y2="66.33"/><line class="cls-1" x1="2.21" y1="73.58" x2="81.95" y2="73.58"/><circle class="cls-1" cx="42.08" cy="15.59" r="5.44"/><line class="cls-1" x1="4.02" y1="42.77" x2="9.46" y2="42.77"/><line class="cls-1" x1="4.02" y1="51.83" x2="9.46" y2="51.83"/><line class="cls-1" x1="4.02" y1="60.89" x2="9.46" y2="60.89"/><polyline class="cls-1" points="69.26 60.9 69.26 33.71 80.14 33.71 80.14 68.14"/><line class="cls-1" x1="80.14" y1="42.77" x2="74.7" y2="42.77"/><line class="cls-1" x1="80.14" y1="51.83" x2="74.7" y2="51.83"/><line class="cls-1" x1="80.14" y1="60.89" x2="74.7" y2="60.89"/><path class="cls-1" d="M22.15,60.89V37.34a3.62,3.62,0,1,1,7.24,0V60.89"/><path class="cls-1" d="M38.46,60.89V37.34a3.62,3.62,0,1,1,7.24,0V60.89"/><path class="cls-1" d="M54.77,60.89V37.34a3.63,3.63,0,1,1,7.25,0V60.89"/></g></g></svg>