<svg xmlns="http://www.w3.org/2000/svg" viewBox="0 0 28.25 23.99"><defs><style>.cls-1{fill:none;stroke:#7fff9c;stroke-linejoin:round;stroke-width:2px;}</style></defs><title>help</title><g id="Livello_2" data-name="Livello 2"><g id="side_bar_navigation" data-name="side bar navigation"><path class="cls-1" d="M3.28,1h12a2.28,2.28,0,0,1,2.28,2.28v9.13a2.29,2.29,0,0,1-2.28,2.29H9.39l-4,4.12a.58.58,0,0,1-1-.4V14.7H3.28A2.29,2.29,0,0,1,1,12.41V3.28A2.28,2.28,0,0,1,3.28,1Z"/><path class="cls-1" d="M11.84,14.7v1.71a2.28,2.28,0,0,0,2.29,2.28h5.3l4,4.12a.57.57,0,0,0,1-.4V18.69H25a2.28,2.28,0,0,0,2.28-2.28V7.28A2.29,2.29,0,0,0,25,5H17.55"/><path class="cls-1" d="M15.84,5H14.13a2.29,2.29,0,0,0-2.29,2.29V13"/></g></g></svg>