<svg xmlns="http://www.w3.org/2000/svg" viewBox="0 0 1429.36 422.26"><defs><style>.cls-1{fill:#7fff9c;}</style></defs><title>Risorsa 1</title><g id="Livello_2" data-name="Livello 2"><g id="Layer_1" data-name="Layer 1"><path class="cls-1" d="M0,105.87V51.11A24,24,0,0,1,24.34,26.77c14,0,24.33,10.34,24.33,24.34v54.76H129a22.45,22.45,0,0,1,22.51,22.51A22.85,22.85,0,0,1,129,150.89H48.67V288.4c0,56.58,32.25,87,80.32,87a22.86,22.86,0,0,1,22.51,22.52C151.5,410.69,141.16,421,129,421,53.54,421,0,369.93,0,288.4V105.87Z"/><path class="cls-1" d="M135.16,261c0-90,69.37-161.24,160.63-161.24s160,71.19,160,161.24-68.75,161.24-160,161.24S135.16,351.07,135.16,261Zm271.37,0c0-64.5-48.07-116.21-110.74-116.21S184.45,196.52,184.45,261c0,63.88,48.67,116.21,111.34,116.21S406.53,324.9,406.53,261Z"/><path class="cls-1" d="M442.42,261c0-90,69.37-161.24,160.63-161.24s160,71.19,160,161.24-68.75,161.24-160,161.24S442.42,351.07,442.42,261Zm271.37,0c0-64.5-48.07-116.21-110.74-116.21S491.71,196.52,491.71,261c0,63.88,48.67,116.21,111.34,116.21S713.79,324.9,713.79,261Z"/><path class="cls-1" d="M783.48,240.33c0-88.22,59-140.55,133.25-140.55,74.83,0,133.85,52.33,133.85,140.55V396.09c0,14-10.95,25-24.33,25-14,0-24.34-11-24.34-25v-157c0-62.07-37.73-94.31-85.18-94.31-46.85,0-84.57,32.24-84.57,94.31v157c0,14-11,25-24.34,25-14,0-24.34-11-24.34-25Z"/><path class="cls-1" d="M1067.62,30.42A30.12,30.12,0,0,1,1098,0a30.51,30.51,0,0,1,30.42,30.42c0,16.43-14,30.42-30.42,30.42A30.5,30.5,0,0,1,1067.62,30.42Zm6.08,94.92A24,24,0,0,1,1098,101a24.41,24.41,0,0,1,24.34,24.34V396.09c0,14-11,25-24.34,25-14,0-24.34-11-24.34-25Z"/><path class="cls-1" d="M1142.79,260c0-90,69.36-161.24,160.62-161.24,44.42,0,81.53,17,105.26,38.94,5.48,4.87,9.13,11.56,9.13,18.86,0,6.09-1.83,11.57-7.91,18.26l-108.3,129.6c-4.87,5.47-10.35,7.9-17,7.9-13.38,0-23.12-9.12-23.12-21.9,0-5.48,1.22-10.95,5.48-15.21l94.91-112c-15.82-13.39-38.33-19.47-58.41-19.47-62.06,0-111.34,51.11-111.34,116.21,0,64.49,48.67,116.21,111.34,116.21,34.68,0,62.06-15.21,80.93-36.51,6.69-6.08,12.16-11,20.68-11,14,0,24.34,9.74,24.34,23.12,0,4.87-3,11.56-7.3,16.43-25.56,30.42-67.54,52.94-118.65,52.94C1212.76,421.26,1142.79,350.07,1142.79,260Z"/></g></g></svg>