<svg xmlns="http://www.w3.org/2000/svg" viewBox="0 0 73.91 64.72"><defs><style>.cls-1{fill:none;stroke:#171234;stroke-linecap:round;stroke-linejoin:round;stroke-width:2px;}</style></defs><title>Risorsa 1</title><g id="Livello_2" data-name="Livello 2"><g id="content"><path class="cls-1" d="M25.12,54.07a3.85,3.85,0,0,1,3.22-1.61H52c1.78,0,11.61-9.85,12.86-11.25a86,86,0,0,0,8-12.87c-.93-1.26-3.45-2.3-6.43-1.61s-4.52,2.7-6.43,6.43L52.68,37"/><path class="cls-1" d="M34.32,42.81H48.79c6.43,0,6.43-8,0-8H39.14c-1.34,0-3.85-3.21-6-3.21h-8c-2.17,0-4.87,1.76-6.43,3.21C16.28,37.18,12,41.21,12,41.21"/><rect class="cls-1" x="8.18" y="38.35" width="11.37" height="25.02" transform="translate(-31.9 24.7) rotate(-45)"/><line class="cls-1" x1="9.04" y1="46.03" x2="12.26" y2="49.25"/><circle class="cls-1" cx="33.51" cy="6.63" r="5.63"/><path class="cls-1" d="M49.59,26.73h0A5.63,5.63,0,0,1,44,21.1h0a5.63,5.63,0,0,1,5.62-5.63h0a5.63,5.63,0,0,1,5.63,5.63h0A5.63,5.63,0,0,1,49.59,26.73Z"/><line class="cls-1" x1="31.1" y1="26.73" x2="52.01" y2="1"/></g></g></svg>