<svg xmlns="http://www.w3.org/2000/svg" viewBox="0 0 76.55 68.26"><defs><style>.cls-1,.cls-2{fill:none;stroke:#171234;stroke-width:2px;}.cls-1{stroke-miterlimit:10;}.cls-2{stroke-linecap:round;stroke-linejoin:round;}</style></defs><title>Risorsa 2</title><g id="Livello_2" data-name="Livello 2"><g id="content"><path class="cls-1" d="M35.79,42.42h-5a6.63,6.63,0,0,1-6.63-6.63v-5a6.63,6.63,0,0,1,6.63-6.63h5"/><line class="cls-1" x1="20.88" y1="30.82" x2="30.82" y2="30.82"/><line class="cls-1" x1="20.88" y1="35.79" x2="30.82" y2="35.79"/><path class="cls-1" d="M54.56,42.42H43V30.82a6.62,6.62,0,0,1,6.62-6.63h3.32"/><line class="cls-1" x1="39.65" y1="33.03" x2="46.83" y2="33.03"/><line class="cls-1" x1="39.65" y1="42.42" x2="49.59" y2="42.42"/><path class="cls-2" d="M18.81,20.88A24,24,0,0,1,62.3,35v2.49H59L67.26,50.7l8.29-13.25H72.23V35a34,34,0,0,0-34-34"/><path class="cls-2" d="M57.74,47.39A24,24,0,0,1,14.25,33.3V30.82h3.32L9.28,15.91,1,30.82H4.31V33.3a34,34,0,0,0,34,34"/></g></g></svg>