<svg xmlns="http://www.w3.org/2000/svg" viewBox="0 0 74.51 71.29"><defs><style>.cls-1,.cls-2{fill:none;stroke:#171234;stroke-width:2px;}.cls-1{stroke-linecap:round;stroke-linejoin:round;}.cls-2{stroke-miterlimit:10;}</style></defs><title>sell_prepaid_card</title><g id="Livello_2" data-name="Livello 2"><g id="content"><path class="cls-1" d="M54.17,31.61V4.22A3.22,3.22,0,0,0,51,1H13.89L1,13.89V67.06a3.23,3.23,0,0,0,3.22,3.23H51a3.23,3.23,0,0,0,3.22-3.23V63.84"/><polyline class="cls-1" points="5.83 15.5 15.5 15.5 15.5 5.83"/><rect class="cls-1" x="36.45" y="34.84" width="37.06" height="25.78" rx="2"/><line class="cls-1" x1="36.45" y1="52.56" x2="73.51" y2="52.56"/><path class="cls-2" d="M12.78,48.92v1.7A3.41,3.41,0,0,0,16.19,54H19.6A3.4,3.4,0,0,0,23,50.62V48a3.39,3.39,0,0,0-2.33-3.23l-5.56-1.86a3.4,3.4,0,0,1-2.33-3.23V37a3.41,3.41,0,0,1,3.41-3.41H19.6A3.41,3.41,0,0,1,23,37v1.7"/><line class="cls-2" x1="17.89" y1="33.59" x2="17.89" y2="28.48"/><line class="cls-2" x1="17.89" y1="54.03" x2="17.89" y2="59.14"/></g></g></svg>