<svg id="Layer_1" data-name="Layer 1" xmlns="http://www.w3.org/2000/svg" viewBox="0 0 1429.36 621.71"><defs><style>.cls-1{fill:#7fff9c;}.cls-2{fill:#fff;}</style></defs><title>toonie_logo</title><path class="cls-1" d="M256.32,434.74V380a24,24,0,0,1,24.34-24.34c14,0,24.33,10.35,24.33,24.34v54.76h80.32a22.45,22.45,0,0,1,22.51,22.51,22.85,22.85,0,0,1-22.51,22.51H305V617.27c0,56.59,32.25,87,80.32,87a22.85,22.85,0,0,1,22.51,22.51c0,12.78-10.34,23.12-22.51,23.12-75.45,0-129-51.11-129-132.64V434.74Z" transform="translate(-256.32 -129.42)"/><path class="cls-1" d="M391.48,589.89c0-90.05,69.37-161.23,160.63-161.23s160,71.18,160,161.23-68.75,161.24-160,161.24S391.48,679.94,391.48,589.89Zm271.37,0c0-64.49-48.07-116.21-110.74-116.21S440.77,525.4,440.77,589.89c0,63.89,48.67,116.21,111.34,116.21S662.85,653.78,662.85,589.89Z" transform="translate(-256.32 -129.42)"/><path class="cls-1" d="M698.74,589.89c0-90.05,69.36-161.23,160.63-161.23s160,71.18,160,161.23-68.75,161.24-160,161.24S698.74,679.94,698.74,589.89Zm271.37,0c0-64.49-48.07-116.21-110.74-116.21S748,525.4,748,589.89c0,63.89,48.67,116.21,111.34,116.21S970.11,653.78,970.11,589.89Z" transform="translate(-256.32 -129.42)"/><path class="cls-1" d="M1039.8,569.2c0-88.22,59-140.54,133.25-140.54,74.83,0,133.85,52.32,133.85,140.54V725c0,14-11,24.95-24.33,24.95-14,0-24.34-10.95-24.34-24.95V568c0-62.06-37.73-94.31-85.18-94.31-46.85,0-84.58,32.25-84.58,94.31V725c0,14-11,24.95-24.33,24.95-14,0-24.34-10.95-24.34-24.95Z" transform="translate(-256.32 -129.42)"/><path class="cls-1" d="M1323.94,359.29a30.12,30.12,0,0,1,30.42-30.42,30.51,30.51,0,0,1,30.42,30.42c0,16.43-14,30.43-30.42,30.43A30.51,30.51,0,0,1,1323.94,359.29Zm6.08,94.92a24,24,0,0,1,24.34-24.34,24.41,24.41,0,0,1,24.34,24.34V725c0,14-11,24.95-24.34,24.95-14,0-24.34-10.95-24.34-24.95Z" transform="translate(-256.32 -129.42)"/><path class="cls-1" d="M1399.11,588.89c0-90.05,69.36-161.23,160.62-161.23,44.42,0,81.53,17,105.26,38.94,5.48,4.86,9.13,11.56,9.13,18.86,0,6.08-1.83,11.56-7.91,18.25l-108.3,129.6c-4.87,5.47-10.35,7.91-17,7.91-13.38,0-23.12-9.13-23.12-21.91,0-5.47,1.22-10.95,5.48-15.21l94.91-112c-15.82-13.39-38.33-19.47-58.41-19.47-62.06,0-111.34,51.11-111.34,116.21,0,64.5,48.67,116.21,111.34,116.21,34.68,0,62.06-15.21,80.92-36.5,6.7-6.09,12.17-11,20.69-11,14,0,24.34,9.74,24.34,23.13,0,4.86-3,11.56-7.3,16.42-25.56,30.42-67.54,52.94-118.65,52.94C1469.07,750.13,1399.11,678.94,1399.11,588.89Z" transform="translate(-256.32 -129.42)"/><rect class="cls-2" x="1064.64" width="23" height="46"/><rect class="cls-2" x="703.68" y="9.44" width="22.06" height="46"/></svg>