<svg xmlns="http://www.w3.org/2000/svg" xmlns:xlink="http://www.w3.org/1999/xlink" viewBox="0 0 398.13 427.43"><defs><style>.cls-1{isolation:isolate;}.cls-2{opacity:0.47;}.cls-3{fill:#381ca9;}.cls-4{fill:url(#linear-gradient);}.cls-5{fill:url(#linear-gradient-2);}.cls-6{fill:url(#linear-gradient-3);}.cls-7{fill:#fadce9;}.cls-8{fill:url(#New_Gradient_Swatch_copy_3);}.cls-9{fill:url(#New_Gradient_Swatch_copy_4);}.cls-10{fill:#fff;}.cls-11{fill:url(#New_Gradient_Swatch_copy_3-2);}.cls-12{fill:#d96c31;}.cls-13{fill:#f5bf53;}.cls-14{fill:#f29650;}.cls-15{fill:#f7d05d;}.cls-16{fill:#7fff9c;}.cls-17{opacity:0.15;mix-blend-mode:multiply;}.cls-18{fill:url(#New_Gradient_Swatch_copy_4-2);}.cls-19{fill:#f9c4c9;}.cls-20{fill:#0f3872;}.cls-21{fill:#3c5aa7;}.cls-22{fill:url(#linear-gradient-4);}.cls-23{fill:url(#linear-gradient-5);}.cls-24{fill:url(#linear-gradient-6);}</style><linearGradient id="linear-gradient" x1="269.18" y1="177.72" x2="363.95" y2="177.72" gradientUnits="userSpaceOnUse"><stop offset="0" stop-color="#00c56b"/><stop offset="0.06" stop-color="#15ce73"/><stop offset="0.17" stop-color="#35dd80"/><stop offset="0.29" stop-color="#50ea8a"/><stop offset="0.42" stop-color="#65f392"/><stop offset="0.56" stop-color="#74fa98"/><stop offset="0.73" stop-color="#7cfe9b"/><stop offset="1" stop-color="#7fff9c"/></linearGradient><linearGradient id="linear-gradient-2" x1="301.96" y1="277.9" x2="386.82" y2="277.9" xlink:href="#linear-gradient"/><linearGradient id="linear-gradient-3" x1="0" y1="318.65" x2="68.99" y2="318.65" xlink:href="#linear-gradient"/><linearGradient id="New_Gradient_Swatch_copy_3" x1="68.21" y1="-2.07" x2="233.95" y2="266.67" gradientUnits="userSpaceOnUse"><stop offset="0" stop-color="#845aed"/><stop offset="1" stop-color="#381ca9"/></linearGradient><linearGradient id="New_Gradient_Swatch_copy_4" x1="94.21" y1="-1.09" x2="246.45" y2="319.09" gradientUnits="userSpaceOnUse"><stop offset="0" stop-color="#909cf4"/><stop offset="1" stop-color="#7635f6"/></linearGradient><linearGradient id="New_Gradient_Swatch_copy_3-2" x1="171.43" y1="327.83" x2="196.19" y2="364.27" xlink:href="#New_Gradient_Swatch_copy_3"/><linearGradient id="New_Gradient_Swatch_copy_4-2" x1="82.75" y1="178.02" x2="285.88" y2="178.02" xlink:href="#New_Gradient_Swatch_copy_4"/><linearGradient id="linear-gradient-4" x1="862.77" y1="266.15" x2="941.58" y2="266.15" gradientTransform="matrix(-1, 0, 0, 1, 973.62, 0)" gradientUnits="userSpaceOnUse"><stop offset="0" stop-color="#fff"/><stop offset="1" stop-color="#d8d9db"/></linearGradient><linearGradient id="linear-gradient-5" x1="920.09" y1="293.77" x2="941.58" y2="293.77" xlink:href="#linear-gradient-4"/><linearGradient id="linear-gradient-6" x1="862.77" y1="235.05" x2="900.36" y2="235.05" xlink:href="#linear-gradient-4"/></defs><title>Risorsa 1</title><g class="cls-1"><g id="Livello_2" data-name="Livello 2"><g id="artwork"><g class="cls-2"><ellipse class="cls-3" cx="178.93" cy="364.17" rx="150.15" ry="43.55"/></g><path class="cls-4" d="M310.77,259.37c48.45-12.55,42.7-45,42.7-45-26.11,3.25-36.44,21.42-40.12,31a469.54,469.54,0,0,0,12.84-53.89C361.92,187,364,160.37,364,160.37c-27.05-5.61-38.23,25.08-38.23,25.08,4.28-17.54,5.18-43.61,5.18-43.61,19.2,2.65,30.09-26.17,30.09-26.17C344.11,109.06,331.27,131,331.27,131l1.67-28.07c15.46-23.69-2.54-42-2.54-42-14.45,20.6-1.15,43.53-1.15,43.53l-.6,26.25c-6-17-24.42-21.67-24.42-21.67-2.33,26.46,23,32.29,23,32.29.71,13.1-3.4,36.47-3.4,36.47-7.72-22.93-30.49-21.53-30.49-21.53-6.43,29.38,27.33,36.46,27.33,36.46-3.52,29.86-12.86,58.77-12.86,58.77-1.65-43.53-38.09-46-38.09-46C264.05,239,305.9,256.1,305.9,256.1c-.26,8.44-7.25,30.77-9.49,37.75,1.43.22,2.85.43,4.27.66A224.44,224.44,0,0,0,310.77,259.37Z"/><path class="cls-5" d="M386.82,241.28s-16.7-3.21-28.13,8l9.66-21s19.63-13.15,15.91-34.82c0,0-21.64,7.74-18.3,32.24l-9.5,22.81s-1.9-22.14-18.1-23.23c0,0-2.34,26.84,14.2,31.93,0,0-9.35,20.94-12.67,36.4,0,0,2.82-28.43-21.21-34.11,0,0-8.66,21.81,18.5,38.68a403.6,403.6,0,0,0-10.46,47.38c.72-8.92-.61-27.13-20.45-39.46,0,0-17.19,23.47,17.12,51.5,0,0-.29,1.06-.75,2.95,1.42.57,2.8,1.15,4.15,1.74a37.66,37.66,0,0,1,1.8-5.45S369,359,377.43,330.38c0,0-30.43-11.64-48.59,22.14,0,0,3.62-26.34,12.32-51.25,0,0,30,7,36.2-18.59,0,0-17.86-9.62-33,5.62,0,0,5.71-20,11.35-30.1C355.74,258.2,378.46,263.07,386.82,241.28Z"/><path class="cls-6" d="M51.37,343.69s16.52-16.21,2.75-30.42c0,0-13.27,7.46-9.69,23.16,0,0-10.38-11.66-14.51-19.29,0,0,12.22-12.45,1.77-26.49,0,0-8.75,9.29-6.24,21L16,297.13S15.6,279.41.36,273.06c0,0-3.78,16.83,13.09,24.55L24.09,312.8s-14.8-7.69-22,2.14c0,0,16.07,12.27,25.94,3.83,0,0,9.51,14.34,18,22.66,0,0-16.88-13.22-30.14-.27,0,0,10.34,14.26,32,3.82,0,0,7.38,8.53,18.79,19.26.78-.42,1.57-.84,2.38-1.25A206.58,206.58,0,0,1,51.37,343.69Z"/><g class="cls-2"><path class="cls-7" d="M29.37,337.38c-.86.47-1.71.94-2.52,1.42a32.71,32.71,0,0,1,9.56,5C33.93,341.6,31.58,339.45,29.37,337.38Z"/></g><rect class="cls-8" x="60.4" width="248.5" height="373.45" rx="12.08"/><rect class="cls-9" x="69.1" y="10.91" width="230.43" height="355.02" rx="11.43"/><rect class="cls-10" x="82.75" y="37.6" width="203.13" height="280.84"/><circle class="cls-11" cx="181.19" cy="342.19" r="14.34"/><path class="cls-12" d="M133.56,386.68c2.87-1.43,10.73-2.45,20-2.45,11.69,0,21.16,1.63,21.16,3.64,0,.83-1.64,1.6-4.39,2.21,3.71-.67,6-1.57,6-2.56,0-2.06-9.7-3.73-21.66-3.73C144.38,383.79,135.78,385,133.56,386.68Z"/><path class="cls-13" d="M151.41,386.67a3.44,3.44,0,0,0,.59.14c.25,0,.55.08.9.11s.72.06,1.13.09l.46-.94c-.58,0-1.07,0-1.48.06s-.76.07-1,.11a3.24,3.24,0,0,0-.59.15c-.11.05-.16.1-.17.15A.38.38,0,0,0,151.41,386.67Z"/><path class="cls-13" d="M159,388.34a.33.33,0,0,0-.2-.14,2.89,2.89,0,0,0-.62-.14c-.26,0-.57-.08-.93-.11l-1.16-.08-.51,1a17.76,17.76,0,0,0,2.55-.19C158.71,388.62,159,388.5,159,388.34Z"/><path class="cls-13" d="M160.23,385.67c.75.07,1.4.15,2,.24l.2-.05c-.62-.1-1.34-.19-2.17-.27s-1.79-.13-2.91-.16l0,.08C158.42,385.54,159.4,385.59,160.23,385.67Z"/><path class="cls-13" d="M152.79,389.56l-.25.51h0l.25-.51Z"/><path class="cls-13" d="M158.74,387.36c.76.05,1.44.11,2,.19a10.18,10.18,0,0,1,1.48.29c.35.11.53.24.55.4,0,0,0,0,0-.05,0-.17-.19-.32-.57-.43a9,9,0,0,0-1.48-.29c-.61-.08-1.29-.14-2-.19l-2.26-.13,0,.08Z"/><path class="cls-13" d="M151.41,386.75a3.44,3.44,0,0,0,.59.14c.25.05.55.08.9.12l1.13.08.5-1h0L154,387c-.41,0-.79-.05-1.13-.09s-.65-.07-.9-.11a3.44,3.44,0,0,1-.59-.14.38.38,0,0,1-.19-.13l0,0C151.2,386.64,151.27,386.7,151.41,386.75Z"/><path class="cls-13" d="M147.93,386.21a7.68,7.68,0,0,1,1.43-.36c.62-.1,1.39-.19,2.31-.26s2-.1,3.15-.1l.18-.36s.13-.08.32-.12a5.15,5.15,0,0,1,.76-.05h1.43l0-.08h-1.47a5.15,5.15,0,0,0-.76.05c-.19,0-.3.08-.32.12l-.18.36c-1.18,0-2.24,0-3.15.1s-1.69.15-2.31.26a7.68,7.68,0,0,0-1.43.36c-.33.14-.49.27-.49.42s0,0,0,0S147.63,386.34,147.93,386.21Z"/><path class="cls-13" d="M159.05,388.38a.08.08,0,0,0,0,0c0,.16-.33.28-.87.38a17.76,17.76,0,0,1-2.55.19l0,.09a17.86,17.86,0,0,0,2.59-.2C158.76,388.69,159.05,388.55,159.05,388.38Z"/><path class="cls-13" d="M148.12,388.67a5.12,5.12,0,0,1,.56,0,6.91,6.91,0,0,1,.76.05l.92.1,1.18.11c.44,0,1,.07,1.57.09l.61-1.24h0l-.57,1.17c-.6,0-1.13-.05-1.57-.09l-1.18-.12-.92-.1a6.8,6.8,0,0,0-.76,0,5.12,5.12,0,0,0-.56,0,3,3,0,0,0-.42.06l-1.23.32.2,0,1-.26A2.79,2.79,0,0,1,148.12,388.67Z"/><path class="cls-14" d="M149.29,389.38c1.09.09,2.26.15,3.5.18h0l-.25.51,0,.08H154a3.94,3.94,0,0,0,.76,0q.3-.06.33-.12l.19-.41c1.21,0,2.28-.06,3.21-.13a22.2,22.2,0,0,0,2.37-.28,6.77,6.77,0,0,0,1.46-.4q.51-.22.51-.48a.05.05,0,0,0,0,0c0-.16-.2-.29-.55-.4a10.18,10.18,0,0,0-1.48-.29c-.61-.08-1.29-.14-2-.19l-2.3-.13,0-.08.52-1.07c.42,0,.8,0,1.15.06l.94.08.76.06.58,0a4.33,4.33,0,0,0,.55,0l.45-.08,1-.26-.2,0c-.57-.09-1.22-.17-2-.24s-1.81-.13-2.95-.16l0-.08.23-.47h-1.47a5.15,5.15,0,0,0-.76.05c-.19,0-.3.08-.32.12l-.18.36c-1.18,0-2.24,0-3.15.1s-1.69.16-2.31.26a7.68,7.68,0,0,0-1.43.36c-.3.13-.45.25-.48.38s0,0,0,0c0,.19.18.35.55.47a7.87,7.87,0,0,0,1.44.32c.6.08,1.27.14,2,.19s1.48.1,2.23.13h0l-.61,1.24c-.6,0-1.13-.05-1.57-.09l-1.18-.11-.92-.1a6.91,6.91,0,0,0-.76-.05,5.12,5.12,0,0,0-.56,0,2.79,2.79,0,0,0-.42.07l-1,.26-.2.05Q147.63,389.25,149.29,389.38Zm6.33-.47.51-1,1.16.08c.36,0,.67.07.93.11a2.89,2.89,0,0,1,.62.14.33.33,0,0,1,.2.14.08.08,0,0,1,0,0c0,.17-.29.31-.88.42a17.86,17.86,0,0,1-2.59.2Zm-4.4-2.37c0-.05.06-.1.17-.15a3.24,3.24,0,0,1,.59-.15c.27,0,.61-.08,1-.11s.9-.05,1.48-.06h0l-.5,1L152.9,387c-.35,0-.65-.07-.9-.12a3.44,3.44,0,0,1-.59-.14c-.14-.05-.21-.11-.21-.19Z"/><path class="cls-12" d="M176.9,393.79V390.5l-.22.05-.58.12-.41.08-.7.13-.35.06-1.06.18-.39.05-.78.12-.48.06-.75.1-.5.06-.84.09-.44,0-1.3.13-.26,0-1.12.09-.15,0v9.25a78.65,78.65,0,0,0,10.33-1.41v-6Zm-7.82,5.6a.88.88,0,0,1-1.76,0v-5.55a.88.88,0,0,1,1.76,0Zm3.33-.44a.88.88,0,1,1-1.75,0V393.4a.88.88,0,1,1,1.75,0Zm3.34-.61a.88.88,0,1,1-1.76,0v-5.55a.88.88,0,0,1,1.76,0Z"/><path class="cls-13" d="M142.74,392.37v-.45l-.16,0-1.12-.09-.25,0-1.31-.13-.44,0-.84-.09-.5-.06-.75-.1-.48-.06-.78-.12-.38-.05-1.07-.18-.35-.06-.69-.13-.42-.08-.58-.12-.22-.05v9.26a78.58,78.58,0,0,0,10.34,1.41v-8.8Zm-7,6.21a.88.88,0,1,1-1.75,0V393a.88.88,0,0,1,1.75,0Zm3.33.48a.87.87,0,0,1-.87.87h0a.87.87,0,0,1-.88-.87V393.5a.88.88,0,0,1,.88-.88h0a.88.88,0,0,1,.87.88Zm3.34.47a.88.88,0,1,1-1.75,0V394a.88.88,0,1,1,1.75,0Z"/><path class="cls-14" d="M166.57,392.37v-.45l-.32,0-1.07.08-.54,0-1.19.08-.31,0h-.07l-1.72.08-.55,0-1.57.05h-.33l-1.75,0h-5l-1.76,0h-.32l-1.57-.05-.56,0-1.72-.08h-.06l-.32,0-1.19-.08-.54,0-1.07-.08-.31,0v9.25c3.62.29,7.65.46,11.91.46s8.3-.17,11.92-.46v-8.8Zm-20.84,7.4a.88.88,0,0,1-1.76,0v-5.56a.88.88,0,0,1,1.76,0Zm3.33.34a.88.88,0,1,1-1.75,0v-5.55a.88.88,0,1,1,1.75,0Zm3.34,0a.88.88,0,1,1-1.76,0v-5.55a.88.88,0,1,1,1.76,0Zm3.33.2a.88.88,0,1,1-1.75,0v-5.55a.88.88,0,1,1,1.75,0Zm3.34-.2a.88.88,0,1,1-1.75,0v-5.55a.88.88,0,1,1,1.75,0Zm3.33,0a.88.88,0,1,1-1.75,0v-5.55a.88.88,0,1,1,1.75,0Zm3.34-.34a.88.88,0,1,1-1.75,0v-5.56a.88.88,0,0,1,1.75,0Z"/><path class="cls-14" d="M182.88,387.52h0a1,1,0,0,1,0,.23l0,.07a1.11,1.11,0,0,1-.07.16.35.35,0,0,1-.05.08l-.11.15-.07.08-.16.15a.27.27,0,0,1-.08.07l-.26.2,0,0-.36.22-.09,0-.32.17a.61.61,0,0,0-.14.07l-.34.14-.16.07-.38.14-.16.06-.5.17-.08,0-.66.2h-.05l-.63.17-.19.05-.56.13-.21.05-.26.06v9.26c3.75-.82,6-1.86,6-3v-9.25Zm-3.8,10.28a.88.88,0,0,1-1.75,0v-5.56a.88.88,0,0,1,1.75,0Zm3.14-.92a.88.88,0,1,1-1.75,0v-5.55a.88.88,0,1,1,1.75,0Z"/><path class="cls-13" d="M126.42,387.52h0a1,1,0,0,0,0,.23l0,.07a1.11,1.11,0,0,0,.07.16l0,.08.11.15.07.08.16.15.08.07.26.2,0,0,.36.22.09.05.33.16.14.07.33.14.16.07.38.14.16.06.5.17.08,0,.66.2.06,0,.63.16.18.05.56.13.22.05.47.11.58.12.42.08.69.13.35.06,1.07.18.38.05.78.12.48.06.75.1.5.06.84.09.44,0,1.31.13.25,0,1.12.09.47,0,1.07.08.54,0,1.19.08.38,0,1.72.08.56,0,1.57.05h.32l1.76,0h5l1.75,0h.33l1.57-.05.55,0,1.72-.08.38,0,1.19-.08.54,0,1.07-.08.47,0,1.12-.09.26,0,1.3-.13.44,0,.84-.09.5-.06.75-.1.48-.06.78-.12.39-.05,1.06-.18.35-.06.7-.13.41-.08.58-.12.48-.11.21-.05.56-.13.19-.05.63-.17h.05l.66-.2.08,0,.5-.17.16-.06.38-.14.16-.07.34-.14a.61.61,0,0,1,.14-.07l.32-.17.09,0,.36-.22,0,0,.26-.2a.27.27,0,0,0,.08-.07l.16-.15.07-.08.11-.15a.35.35,0,0,0,.05-.08,1.11,1.11,0,0,0,.07-.16l0-.07a1,1,0,0,0,0-.23h0c0-2.68-12.65-4.85-28.23-4.85s-28.21,2.17-28.23,4.85h0Zm49.89,0c0,1-2.28,1.89-6,2.56,2.75-.61,4.39-1.38,4.39-2.21,0-2-9.47-3.64-21.16-3.64-9.26,0-17.12,1-20,2.45,2.22-1.66,10.82-2.89,21.09-2.89C166.61,383.79,176.31,385.46,176.31,387.52ZM146.47,389l1.23-.32a3,3,0,0,1,.42-.06,5.12,5.12,0,0,1,.56,0,6.8,6.8,0,0,1,.76,0l.92.1,1.18.12c.44,0,1,.07,1.57.09l.57-1.17c-.75,0-1.49-.08-2.23-.13s-1.42-.11-2-.19a7.87,7.87,0,0,1-1.44-.32c-.37-.12-.55-.28-.55-.47,0,0,0,0,0,0s0,0,0,0,.16-.28.49-.42a7.68,7.68,0,0,1,1.43-.36c.62-.11,1.39-.19,2.31-.26s2-.1,3.15-.1l.18-.36s.13-.08.32-.12a5.15,5.15,0,0,1,.76-.05h1.47l0,.08h0l-.23.47c1.12,0,2.09.08,2.91.16s1.55.17,2.17.27l-.2.05.2,0-1,.26-.45.08a4.33,4.33,0,0,1-.55,0l-.58,0-.76-.06-.94-.08c-.35,0-.73-.05-1.15-.06l-.52,1.07,2.26.13c.76.05,1.44.11,2,.19a9,9,0,0,1,1.48.29c.38.11.57.26.57.43,0,0,0,0,0,.05a.05.05,0,0,1,0,0q0,.25-.51.48a6.77,6.77,0,0,1-1.46.4,22.2,22.2,0,0,1-2.37.28c-.93.07-2,.12-3.21.13l-.19.41s-.13.08-.33.12a3.94,3.94,0,0,1-.76,0h-1.47l0-.08h0l.25-.51c-1.24,0-2.41-.09-3.5-.18s-2-.2-2.82-.33l.2-.05Z"/><path class="cls-14" d="M132.4,393.79V390.5l-.25-.06-.22-.05-.56-.13-.18-.05-.63-.16-.06,0-.66-.2-.08,0-.5-.17-.16-.06-.38-.14-.16-.07-.33-.14-.14-.07-.33-.16-.09-.05-.36-.22,0,0-.26-.2-.08-.07-.16-.15-.07-.08-.11-.15,0-.08a1.11,1.11,0,0,1-.07-.16l0-.07a1,1,0,0,1,0-.23h0v9.25c0,1.13,2.23,2.17,6,3v-6Zm-3.35,3.09a.88.88,0,1,1-1.76,0v-5.55a.88.88,0,0,1,1.76,0Zm3.14,1a.87.87,0,0,1-.88.87h0a.87.87,0,0,1-.87-.87v-5.56a.88.88,0,0,1,.87-.88h0a.88.88,0,0,1,.88.88Z"/><path class="cls-15" d="M141.51,393.1a.87.87,0,0,0-.87.88v5.55a.88.88,0,1,0,1.75,0V394A.87.87,0,0,0,141.51,393.1Z"/><path class="cls-13" d="M144.85,393.34a.88.88,0,0,0-.88.87v5.56a.88.88,0,0,0,1.76,0v-5.56A.88.88,0,0,0,144.85,393.34Z"/><path class="cls-13" d="M148.19,393.68a.87.87,0,0,0-.88.88v5.55a.88.88,0,1,0,1.75,0v-5.55A.87.87,0,0,0,148.19,393.68Z"/><path class="cls-13" d="M151.52,393.68a.88.88,0,0,0-.88.88v5.55a.88.88,0,1,0,1.76,0v-5.55A.87.87,0,0,0,151.52,393.68Z"/><path class="cls-13" d="M154.86,393.88a.88.88,0,0,0-.88.88v5.55a.88.88,0,1,0,1.75,0v-5.55A.88.88,0,0,0,154.86,393.88Z"/><path class="cls-13" d="M178.21,391.37a.87.87,0,0,0-.88.87v5.56a.88.88,0,0,0,1.75,0v-5.56A.87.87,0,0,0,178.21,391.37Z"/><path class="cls-14" d="M174.87,391.91a.88.88,0,0,0-.88.88v5.55a.88.88,0,1,0,1.76,0v-5.55A.88.88,0,0,0,174.87,391.91Z"/><path class="cls-14" d="M171.53,392.52a.87.87,0,0,0-.87.88V399a.88.88,0,1,0,1.75,0V393.4A.87.87,0,0,0,171.53,392.52Z"/><path class="cls-14" d="M168.2,393a.88.88,0,0,0-.88.88v5.55a.88.88,0,0,0,1.76,0v-5.55A.88.88,0,0,0,168.2,393Z"/><path class="cls-13" d="M164.86,393.34a.87.87,0,0,0-.87.87v5.56a.88.88,0,1,0,1.75,0v-5.56A.87.87,0,0,0,164.86,393.34Z"/><path class="cls-13" d="M161.53,393.68a.87.87,0,0,0-.88.88v5.55a.88.88,0,1,0,1.75,0v-5.55A.87.87,0,0,0,161.53,393.68Z"/><path class="cls-13" d="M158.19,393.68a.87.87,0,0,0-.87.88v5.55a.88.88,0,1,0,1.75,0v-5.55A.87.87,0,0,0,158.19,393.68Z"/><path class="cls-13" d="M181.34,390.45a.87.87,0,0,0-.87.88v5.55a.88.88,0,1,0,1.75,0v-5.55A.87.87,0,0,0,181.34,390.45Z"/><rect class="cls-15" x="137.3" y="392.62" width="1.75" height="7.31" rx="0.88"/><path class="cls-15" d="M134.84,392.15a.87.87,0,0,0-.87.87v5.56a.88.88,0,1,0,1.75,0V393A.87.87,0,0,0,134.84,392.15Z"/><path class="cls-13" d="M131.31,391.4h0a.88.88,0,0,0-.87.88v5.56a.87.87,0,0,0,.87.87h0a.87.87,0,0,0,.88-.87v-5.56A.88.88,0,0,0,131.31,391.4Z"/><path class="cls-13" d="M128.17,390.45a.88.88,0,0,0-.88.88v5.55a.88.88,0,1,0,1.76,0v-5.55A.87.87,0,0,0,128.17,390.45Z"/><path class="cls-12" d="M344,411.05c3.15-1.55,11.76-2.67,21.9-2.67,12.8,0,23.17,1.78,23.17,4,0,.91-1.8,1.75-4.81,2.43,4.06-.74,6.55-1.73,6.55-2.82,0-2.25-10.61-4.07-23.71-4.07C355.87,407.9,346.45,409.25,344,411.05Z"/><path class="cls-13" d="M363.57,411.05a3.15,3.15,0,0,0,.65.15c.28.05.6.09,1,.13l1.24.09.5-1c-.63,0-1.17,0-1.61.07s-.84.07-1.14.12a2.91,2.91,0,0,0-.64.16.32.32,0,0,0-.19.16A.47.47,0,0,0,363.57,411.05Z"/><path class="cls-13" d="M371.93,412.88c0-.06-.1-.11-.23-.16a3.08,3.08,0,0,0-.67-.15c-.29-.05-.62-.09-1-.12l-1.27-.09-.56,1.15a18.9,18.9,0,0,0,2.8-.22C371.56,413.18,371.88,413.05,371.93,412.88Z"/><path class="cls-13" d="M373.24,410c.81.07,1.52.16,2.15.26l.22-.06c-.68-.11-1.47-.21-2.37-.29s-2-.15-3.2-.18l0,.08C371.25,409.81,372.33,409.87,373.24,410Z"/><path class="cls-13" d="M365.09,414.21l-.28.56h.05l.27-.56Z"/><path class="cls-13" d="M371.6,411.8q1.25.09,2.25.21a10.11,10.11,0,0,1,1.61.32c.38.12.58.26.61.43v0c0-.19-.2-.35-.62-.48a10.11,10.11,0,0,0-1.61-.32q-1-.12-2.25-.21l-2.48-.14,0,.09Z"/><path class="cls-13" d="M363.57,411.14a3.15,3.15,0,0,0,.65.15c.28,0,.6.09,1,.13l1.24.09.55-1.12h-.05l-.5,1-1.24-.09c-.38,0-.7-.08-1-.13a3.15,3.15,0,0,1-.65-.15.47.47,0,0,1-.21-.15s0,0,0,0S363.42,411.08,363.57,411.14Z"/><path class="cls-13" d="M359.76,410.55a7.77,7.77,0,0,1,1.57-.4c.68-.11,1.52-.21,2.53-.28s2.15-.12,3.45-.12l.19-.38c0-.05.14-.1.36-.14a6,6,0,0,1,.83-.05h1.56l.05-.09h-1.61a6,6,0,0,0-.83.05c-.22,0-.33.09-.36.14l-.19.38q-1.95,0-3.45.12c-1,.07-1.85.17-2.53.28a7.77,7.77,0,0,0-1.57.4q-.54.23-.54.45s0,0,0,0C359.26,410.82,359.43,410.68,359.76,410.55Z"/><path class="cls-13" d="M371.94,412.92a.08.08,0,0,0,0,0c-.05.17-.37.3-.95.41a18.9,18.9,0,0,1-2.8.22l0,.09a19.3,19.3,0,0,0,2.84-.22C371.62,413.26,371.94,413.11,371.94,412.92Z"/><path class="cls-13" d="M360,413.24a6.6,6.6,0,0,1,1.44,0l1,.11,1.29.12c.48.05,1,.08,1.71.1l.68-1.36h-.05l-.63,1.28c-.66,0-1.23-.05-1.71-.1l-1.29-.12-1-.12a8.07,8.07,0,0,0-.83,0,6.08,6.08,0,0,0-.61,0,3.24,3.24,0,0,0-.46.07l-1.35.35.22,0,1.13-.29A3.24,3.24,0,0,1,360,413.24Z"/><path class="cls-14" d="M361.25,414c1.19.09,2.47.16,3.84.19h0l-.27.56-.05.09h1.61a4.56,4.56,0,0,0,.83-.06c.22,0,.34-.08.36-.13l.21-.44c1.32,0,2.5-.07,3.52-.15a25.65,25.65,0,0,0,2.59-.3,7.4,7.4,0,0,0,1.6-.44c.37-.17.55-.34.55-.53,0,0,0,0,0-.05,0-.17-.23-.31-.61-.43a10.11,10.11,0,0,0-1.61-.32q-1-.12-2.25-.21l-2.52-.14,0-.09.58-1.17,1.25.07,1,.08.83.07.63,0a5.21,5.21,0,0,0,.6,0,3.86,3.86,0,0,0,.49-.09l1.07-.28-.22,0c-.63-.1-1.34-.19-2.15-.26s-2-.15-3.24-.19l0-.08.26-.51h-1.61a6,6,0,0,0-.83.05c-.22,0-.33.09-.36.14l-.19.38q-1.95,0-3.45.12c-1,.07-1.85.17-2.53.28a7.77,7.77,0,0,0-1.57.4c-.33.13-.5.27-.52.41l0,0c0,.21.2.38.6.52a8.63,8.63,0,0,0,1.59.34c.65.09,1.39.17,2.21.22s1.62.1,2.44.14h.05l-.68,1.36c-.66,0-1.23,0-1.71-.1l-1.29-.12-1-.11a6.6,6.6,0,0,0-1.44,0,3.24,3.24,0,0,0-.46.07l-1.13.29-.22.06Q359.43,413.87,361.25,414Zm6.93-.51.56-1.15,1.27.09c.4,0,.73.07,1,.12a3.08,3.08,0,0,1,.67.15c.13,0,.21.1.23.16a.08.08,0,0,1,0,0c0,.19-.32.34-1,.46a19.3,19.3,0,0,1-2.84.22Zm-4.82-2.61a.32.32,0,0,1,.19-.16,2.91,2.91,0,0,1,.64-.16q.45-.07,1.14-.12c.44,0,1-.06,1.61-.07H367l-.55,1.12-1.24-.09c-.38,0-.7-.08-1-.13a3.15,3.15,0,0,1-.65-.15c-.15-.06-.23-.13-.23-.21S363.36,410.91,363.36,410.9Z"/><path class="cls-12" d="M391.49,418.84v-3.59l-.25.05-.63.13-.45.09-.76.14-.39.07-1.16.19-.43.06-.85.12-.52.07-.83.11-.54.07-.93.1-.48.06-1.43.14-.27,0-1.23.11h-.17v10.14a87.2,87.2,0,0,0,11.32-1.55v-6.54ZM382.92,425a1,1,0,0,1-1.92,0V418.9a1,1,0,1,1,1.92,0Zm3.65-.48a1,1,0,0,1-1.92,0v-6.08a1,1,0,0,1,1.92,0Zm3.65-.67a1,1,0,1,1-1.92,0v-6.08a1,1,0,1,1,1.92,0Z"/><path class="cls-13" d="M354.07,417.3v-.51h-.16l-1.24-.11-.27,0-1.43-.14-.48-.06-.92-.1-.55-.07-.82-.11-.53-.07-.85-.12-.42-.06-1.17-.19-.38-.07-.76-.14-.46-.09-.63-.13-.24-.05v10.13a87,87,0,0,0,11.31,1.55V417.3Zm-7.68,6.79a1,1,0,1,1-1.92,0V418a1,1,0,1,1,1.92,0Zm3.65.52a1,1,0,0,1-1,1h0a1,1,0,0,1-1-1v-6.08a1,1,0,0,1,1-1h0a1,1,0,0,1,1,1Zm3.65.52a1,1,0,1,1-1.91,0v-6.08a1,1,0,1,1,1.91,0Z"/><path class="cls-14" d="M380.17,417.3v-.51l-.35,0-1.17.08-.59,0-1.3.08-.35,0h-.07l-1.88.09-.61,0-1.72.06h-.35l-1.92,0h-.68l-1.81,0h-.49l-1.82,0h-.67l-1.92,0h-.36l-1.72-.06-.61,0-1.88-.09h-.07l-.34,0-1.31-.08-.59,0-1.17-.08-.35,0v10.14c4,.32,8.39.5,13.05.5s9.08-.18,13.05-.5V417.3Zm-22.82,8.09a1,1,0,1,1-1.92,0v-6.08a1,1,0,1,1,1.92,0Zm3.65.38a1,1,0,1,1-1.92,0v-6.08a1,1,0,1,1,1.92,0Zm3.65,0a1,1,0,1,1-1.92,0v-6.08a1,1,0,0,1,1.92,0Zm3.66.22a1,1,0,0,1-1.92,0v-6.08a1,1,0,0,1,1.92,0Zm3.65-.22a1,1,0,1,1-1.92,0v-6.08a1,1,0,0,1,1.92,0Zm3.65,0a1,1,0,1,1-1.92,0v-6.08a1,1,0,1,1,1.92,0Zm3.65-.38a1,1,0,1,1-1.92,0v-6.08a1,1,0,1,1,1.92,0Z"/><path class="cls-14" d="M398,412h0a1.09,1.09,0,0,1,0,.26l0,.08a.65.65,0,0,1-.08.17.41.41,0,0,1-.05.09l-.12.17a.6.6,0,0,0-.08.08l-.17.17-.09.08-.29.21,0,0a3,3,0,0,1-.4.23l-.09,0a3,3,0,0,1-.36.19l-.15.07-.36.16-.18.07-.42.16-.17.06-.55.18-.09,0-.72.22h-.06l-.69.19-.21.05-.6.15-.24.05-.28.07v10.13c4.1-.9,6.55-2,6.55-3.27V412Zm-4.16,11.26a1,1,0,0,1-1.92,0v-6.08a1,1,0,0,1,1.92,0Zm3.43-1a1,1,0,0,1-1.92,0v-6.08a1,1,0,0,1,1.92,0Z"/><path class="cls-13" d="M336.21,412h0a1.09,1.09,0,0,0,0,.26l0,.08a1.3,1.3,0,0,0,.08.17.41.41,0,0,1,0,.09l.13.17.07.08a1,1,0,0,0,.18.17l.08.08.29.21,0,0a3.81,3.81,0,0,0,.4.23l.09,0,.36.19.16.07.36.15.18.08.41.16.18.06.54.18.09,0,.72.22h.07l.69.19.2.05.61.15.24.05.52.12.63.13.46.09.76.14.38.07,1.17.19.42.06.85.12.53.07.82.11.55.07.92.1.48.06,1.43.14.27,0,1.24.11.51,0,1.17.08.59,0,1.31.08.41,0,1.88.09.61,0,1.72.06h.36l1.92,0h.67l1.82,0h.49l1.81,0h.68l1.92,0h.35l1.72-.06.61,0,1.88-.09.42,0,1.3-.08.59,0,1.17-.08.52,0,1.23-.11.27,0,1.43-.14.48-.06.93-.1.54-.07.83-.11.52-.07.85-.12.43-.06,1.16-.19.39-.07.76-.14.45-.09.63-.13.53-.12.24-.05.6-.15.21-.05.69-.19h.06l.72-.22.09,0,.55-.18.17-.06.42-.16.18-.07.36-.16.15-.07a3,3,0,0,0,.36-.19l.09,0a3,3,0,0,0,.4-.23l0,0,.29-.21.09-.08.17-.17a.6.6,0,0,1,.08-.08l.12-.17a.41.41,0,0,0,.05-.09.65.65,0,0,0,.08-.17l0-.08a1.09,1.09,0,0,0,0-.26h0c0-2.93-13.85-5.31-30.92-5.31S336.22,409,336.21,412h0Zm54.62,0c0,1.09-2.49,2.08-6.55,2.82,3-.68,4.81-1.52,4.81-2.43,0-2.2-10.37-4-23.17-4-10.14,0-18.75,1.12-21.9,2.67,2.43-1.8,11.85-3.15,23.1-3.15C380.22,407.9,390.83,409.72,390.83,412Zm-32.67,1.6,1.35-.35a3.24,3.24,0,0,1,.46-.07,6.08,6.08,0,0,1,.61,0,8.07,8.07,0,0,1,.83,0l1,.12,1.29.12c.48.05,1,.08,1.71.1l.63-1.28c-.82,0-1.64-.08-2.44-.14s-1.56-.13-2.21-.22a8.63,8.63,0,0,1-1.59-.34c-.4-.14-.6-.31-.6-.52l0,0s0,0,0,0,.18-.3.54-.45a7.77,7.77,0,0,1,1.57-.4c.68-.11,1.52-.21,2.53-.28s2.15-.12,3.45-.12l.19-.38s.14-.1.36-.14a6,6,0,0,1,.83-.05h1.61l-.05.09h.05l-.26.51c1.23,0,2.3.09,3.2.18s1.69.18,2.37.29l-.22.06.22,0-1.07.28a3.86,3.86,0,0,1-.49.09,5.21,5.21,0,0,1-.6,0l-.63,0-.83-.07-1-.08-1.25-.07-.58,1.17,2.48.14q1.25.09,2.25.21a10.11,10.11,0,0,1,1.61.32c.42.13.62.29.62.48v0s0,0,0,.05c0,.19-.18.36-.55.53a7.4,7.4,0,0,1-1.6.44,25.65,25.65,0,0,1-2.59.3c-1,.08-2.2.13-3.52.15l-.21.44c0,.05-.14.09-.36.13a4.56,4.56,0,0,1-.83.06h-1.61l.05-.09h-.05l.28-.56c-1.37,0-2.65-.1-3.84-.19s-2.24-.22-3.09-.36l.22-.06Z"/><path class="cls-14" d="M342.76,418.84v-3.59l-.28-.07-.24-.05-.61-.15-.2-.05-.69-.19h-.07l-.72-.22-.09,0-.54-.18-.18-.06-.41-.16-.18-.08-.36-.15-.16-.07-.36-.19-.09,0a3.81,3.81,0,0,1-.4-.23l0,0-.29-.21-.08-.08a1,1,0,0,1-.18-.17l-.07-.08-.13-.17a.41.41,0,0,0,0-.09,1.3,1.3,0,0,1-.08-.17l0-.08a1.09,1.09,0,0,1,0-.26h0v10.14c0,1.24,2.44,2.37,6.55,3.27v-6.54Zm-3.68,3.39a1,1,0,0,1-1.92,0v-6.08a1,1,0,0,1,1.92,0Zm3.44,1a1,1,0,0,1-1,1h0a1,1,0,0,1-1-1v-6.09a1,1,0,0,1,1-1h0a1,1,0,0,1,1,1Z"/><path class="cls-15" d="M352.73,418.09a1,1,0,0,0-1,1v6.08a1,1,0,1,0,1.91,0v-6.08A1,1,0,0,0,352.73,418.09Z"/><path class="cls-13" d="M356.39,418.35a1,1,0,0,0-1,1v6.08a1,1,0,1,0,1.92,0v-6.08A1,1,0,0,0,356.39,418.35Z"/><path class="cls-13" d="M360,418.73a1,1,0,0,0-1,1v6.08a1,1,0,1,0,1.92,0v-6.08A1,1,0,0,0,360,418.73Z"/><path class="cls-13" d="M363.69,418.73a1,1,0,0,0-1,1v6.08a1,1,0,1,0,1.92,0v-6.08A1,1,0,0,0,363.69,418.73Z"/><path class="cls-13" d="M367.35,419a1,1,0,0,0-1,1V426a1,1,0,0,0,1.92,0v-6.08A1,1,0,0,0,367.35,419Z"/><path class="cls-13" d="M392.92,416.19a1,1,0,0,0-1,1v6.08a1,1,0,0,0,1.92,0v-6.08A1,1,0,0,0,392.92,416.19Z"/><path class="cls-14" d="M389.26,416.79a1,1,0,0,0-1,1v6.08a1,1,0,1,0,1.92,0v-6.08A1,1,0,0,0,389.26,416.79Z"/><path class="cls-14" d="M385.61,417.46a1,1,0,0,0-1,1v6.08a1,1,0,0,0,1.92,0v-6.08A1,1,0,0,0,385.61,417.46Z"/><path class="cls-14" d="M382,417.94a1,1,0,0,0-1,1V425a1,1,0,0,0,1.92,0V418.9A1,1,0,0,0,382,417.94Z"/><path class="cls-13" d="M378.3,418.35a1,1,0,0,0-1,1v6.08a1,1,0,1,0,1.92,0v-6.08A1,1,0,0,0,378.3,418.35Z"/><path class="cls-13" d="M374.65,418.73a1,1,0,0,0-1,1v6.08a1,1,0,1,0,1.92,0v-6.08A1,1,0,0,0,374.65,418.73Z"/><path class="cls-13" d="M371,418.73a1,1,0,0,0-1,1v6.08a1,1,0,1,0,1.92,0v-6.08A1,1,0,0,0,371,418.73Z"/><path class="cls-13" d="M396.35,415.19a1,1,0,0,0-1,1v6.08a1,1,0,0,0,1.92,0v-6.08A1,1,0,0,0,396.35,415.19Z"/><rect class="cls-15" x="348.12" y="417.57" width="1.92" height="8" rx="0.96"/><path class="cls-15" d="M345.43,417.05a1,1,0,0,0-1,1v6.08a1,1,0,1,0,1.92,0V418A1,1,0,0,0,345.43,417.05Z"/><path class="cls-13" d="M341.56,416.23h0a1,1,0,0,0-1,1v6.09a1,1,0,0,0,1,1h0a1,1,0,0,0,1-1v-6.09A1,1,0,0,0,341.56,416.23Z"/><path class="cls-13" d="M338.12,415.19a1,1,0,0,0-1,1v6.08a1,1,0,0,0,1.92,0v-6.08A1,1,0,0,0,338.12,415.19Z"/><path class="cls-12" d="M294.46,371.5c2.45-1.21,9.17-2.08,17.07-2.08,10,0,18.08,1.39,18.08,3.1,0,.71-1.4,1.37-3.75,1.9,3.16-.58,5.11-1.35,5.11-2.2,0-1.75-8.28-3.18-18.5-3.18C303.7,369,296.35,370.1,294.46,371.5Z"/><path class="cls-13" d="M309.71,371.5a2.62,2.62,0,0,0,.5.12c.22,0,.47.07.77.1l1,.07.4-.81c-.5,0-.92,0-1.27.06s-.65.06-.88.1a2.14,2.14,0,0,0-.5.12c-.09,0-.14.08-.15.13A.29.29,0,0,0,309.71,371.5Z"/><path class="cls-13" d="M316.23,372.93c0-.05-.08-.09-.18-.13a4.38,4.38,0,0,0-.53-.12l-.79-.09-1-.06-.44.89a16.14,16.14,0,0,0,2.18-.17C315.94,373.17,316.18,373.06,316.23,372.93Z"/><path class="cls-13" d="M317.24,370.65c.64.06,1.19.13,1.68.2l.17,0c-.52-.09-1.14-.16-1.85-.23s-1.53-.12-2.49-.14l0,.07C315.69,370.53,316.53,370.58,317.24,370.65Z"/><path class="cls-13" d="M310.89,374l-.22.44h0l.21-.44Z"/><path class="cls-13" d="M316,372.09c.65,0,1.24.1,1.76.16a8,8,0,0,1,1.26.25c.3.09.45.21.47.34a.06.06,0,0,0,0,0c0-.15-.16-.27-.48-.37a8,8,0,0,0-1.26-.25c-.52-.06-1.11-.12-1.76-.16l-1.93-.11,0,.07Z"/><path class="cls-13" d="M309.71,371.57a2,2,0,0,0,.5.12c.22,0,.47.07.77.1l1,.07.43-.88h0l-.4.81-1-.07c-.3,0-.55-.06-.77-.1a2.62,2.62,0,0,1-.5-.12.29.29,0,0,1-.17-.11,0,0,0,0,0,0,0C309.53,371.47,309.59,371.52,309.71,371.57Z"/><path class="cls-13" d="M306.73,371.11a6.41,6.41,0,0,1,1.22-.31c.54-.09,1.19-.16,2-.22s1.68-.09,2.69-.09l.15-.3s.11-.07.28-.1a3.65,3.65,0,0,1,.65,0h1.22l0-.07H313.7a2.9,2.9,0,0,0-.65,0c-.17,0-.26.06-.28.1l-.15.3c-1,0-1.91,0-2.69.09s-1.44.13-2,.22a6.41,6.41,0,0,0-1.22.31c-.28.12-.42.23-.42.35s0,0,0,0S306.48,371.22,306.73,371.11Z"/><path class="cls-13" d="M316.23,373v0c-.05.13-.29.24-.75.32a16.14,16.14,0,0,1-2.18.17l0,.07a15.11,15.11,0,0,0,2.21-.17Q316.23,373.19,316.23,373Z"/><path class="cls-13" d="M306.9,373.21a3.62,3.62,0,0,1,.47,0l.65,0,.79.09,1,.1c.37,0,.82.06,1.34.07l.52-1.06h0l-.49,1c-.52,0-1,0-1.34-.07l-1-.1-.79-.09c-.23,0-.44,0-.65,0a3.59,3.59,0,0,0-.47,0,1.58,1.58,0,0,0-.37.06l-1,.26.18,0,.87-.22A1.58,1.58,0,0,1,306.9,373.21Z"/><path class="cls-14" d="M307.89,373.82q1.39.1,3,.15h0l-.21.44,0,.07h1.26a3.73,3.73,0,0,0,.65-.05c.16,0,.26-.06.27-.1L313,374c1,0,1.94-.05,2.74-.11a19.67,19.67,0,0,0,2-.24,5.55,5.55,0,0,0,1.24-.34c.29-.13.43-.27.43-.42a0,0,0,0,0,0,0c0-.13-.17-.25-.47-.34a8,8,0,0,0-1.26-.25c-.52-.06-1.11-.12-1.76-.16l-2-.11,0-.07.45-.92,1,.06.81.06.65.06.49,0,.47,0a2.57,2.57,0,0,0,.38-.08l.83-.21-.17,0c-.49-.07-1-.14-1.68-.2s-1.55-.12-2.52-.14l0-.07.2-.4H313.7a3.65,3.65,0,0,0-.65,0c-.17,0-.26.06-.28.1l-.15.3c-1,0-1.91,0-2.69.09s-1.44.13-2,.22a6.41,6.41,0,0,0-1.22.31c-.25.11-.39.21-.41.32v0c0,.17.16.3.47.41a6.51,6.51,0,0,0,1.24.27c.51.07,1.08.12,1.72.17l1.91.11h0l-.52,1.06c-.52,0-1,0-1.34-.07l-1-.1-.79-.09-.65,0a3.62,3.62,0,0,0-.47,0,1.58,1.58,0,0,0-.37.06l-.87.22-.18,0C306.15,373.65,307,373.74,307.89,373.82Zm5.41-.4.44-.89,1,.06.79.09a4.38,4.38,0,0,1,.53.12c.1,0,.16.08.18.13v0q0,.23-.75.36a15.11,15.11,0,0,1-2.21.17Zm-3.76-2c0-.05.06-.09.15-.13a2.14,2.14,0,0,1,.5-.12c.23,0,.52-.07.88-.1s.77,0,1.27-.06h0l-.43.88-1-.07c-.3,0-.55-.06-.77-.1a2,2,0,0,1-.5-.12c-.12-.05-.18-.1-.18-.16A0,0,0,0,1,309.54,371.39Z"/><path class="cls-12" d="M331.48,377.58v-2.81l-.19,0-.49.11-.36.07-.59.1-.3.06-.91.15-.33.05-.67.09-.4.06-.65.08-.42.05-.72.09-.38,0-1.11.11-.22,0-1,.08h-.13v7.91a68.93,68.93,0,0,0,8.83-1.21v-5.1Zm-6.69,4.79a.75.75,0,1,1-1.49,0v-4.75a.75.75,0,1,1,1.49,0Zm2.85-.38a.75.75,0,1,1-1.49,0v-4.74a.75.75,0,1,1,1.49,0Zm2.85-.52a.75.75,0,0,1-1.5,0v-4.74a.75.75,0,0,1,1.5,0Z"/><path class="cls-13" d="M302.3,376.37V376h-.13l-1-.08-.21,0-1.11-.11-.38,0-.72-.09-.42-.05-.65-.08-.41-.06-.66-.09-.33-.05-.91-.15-.3,0-.59-.11-.36-.07-.49-.11-.19,0v7.91a68.68,68.68,0,0,0,8.83,1.21v-7.52Zm-6,5.3a.75.75,0,1,1-1.49,0v-4.74a.75.75,0,1,1,1.49,0Zm2.85.41a.75.75,0,0,1-.75.75h0a.76.76,0,0,1-.75-.75v-4.75a.75.75,0,0,1,.75-.74h0a.74.74,0,0,1,.75.74Zm2.85.41a.75.75,0,0,1-1.5,0v-4.75a.75.75,0,0,1,1.5,0Z"/><path class="cls-14" d="M322.65,376.37V376l-.27,0-.91.07-.46,0-1,.06-.27,0h-.06l-1.46.07-.48,0-1.34,0h-.28l-1.49,0h-4.27l-1.5,0h-.27l-1.35,0-.47,0-1.47-.07h0l-.27,0-1-.06-.46,0-.91-.07-.27,0v7.91c3.09.25,6.54.39,10.17.39s7.09-.14,10.18-.39v-7.52Zm-17.8,6.32a.75.75,0,0,1-1.5,0v-4.75a.75.75,0,0,1,1.5,0Zm2.85.29a.75.75,0,0,1-1.5,0v-4.74a.75.75,0,0,1,1.5,0Zm2.85,0a.75.75,0,0,1-1.5,0v-4.74a.75.75,0,0,1,1.5,0Zm2.85.17a.75.75,0,0,1-1.5,0v-4.74a.75.75,0,1,1,1.5,0Zm2.85-.17a.75.75,0,0,1-1.5,0v-4.74a.75.75,0,0,1,1.5,0Zm2.85,0a.75.75,0,0,1-1.5,0v-4.74a.75.75,0,0,1,1.5,0Zm2.84-.29a.75.75,0,1,1-1.49,0v-4.75a.75.75,0,0,1,1.49,0Z"/><path class="cls-14" d="M336.59,372.22h0a.64.64,0,0,1,0,.2.14.14,0,0,0,0,.06l-.06.14-.05.07-.09.13-.06.06a1.85,1.85,0,0,1-.14.14l-.06.05-.23.17,0,0-.3.19-.08,0-.28.14-.12.05-.28.13-.14.05-.32.13-.14.05-.42.14-.08,0-.56.17h0l-.54.15-.16,0-.48.11-.19,0-.21,0v7.91c3.2-.7,5.11-1.59,5.11-2.55v-7.91ZM333.34,381a.75.75,0,0,1-1.5,0v-4.74a.75.75,0,0,1,1.5,0Zm2.68-.78a.75.75,0,0,1-1.5,0v-4.74a.75.75,0,0,1,1.5,0Z"/><path class="cls-13" d="M288.36,372.22h0a.64.64,0,0,0,0,.2.14.14,0,0,0,0,.06l.06.14,0,.07.1.13.06.06a1.85,1.85,0,0,0,.14.14l.06.05.23.17,0,0,.31.19.08,0,.27.14.12.05.29.13.14.05.32.13.14.05.42.14.07,0,.56.17h.05l.54.15.16,0,.47.11.19,0,.41.09.49.11.36.07.59.11.3,0,.91.15.33.05.66.09.41.06.65.08.42.05.72.09.38,0,1.11.11.21,0,1,.08.4,0,.91.07.46,0,1,.06.32,0,1.47.07.47,0,1.35,0h.27l1.5,0h4.27l1.49,0h.28l1.34,0,.48,0,1.46-.07.33,0,1-.06.46,0,.91-.07.4,0,1-.08.22,0,1.11-.11.38,0,.72-.09.42-.05.65-.08.4-.06.67-.09.33-.05.91-.15.3-.06.59-.1.36-.07.49-.11.4-.09.19,0,.48-.11.16,0,.54-.15h0l.56-.17.08,0,.42-.14.14-.05.32-.13.14-.05.28-.13.12-.05.28-.14.08,0,.3-.19,0,0,.23-.17.06-.05a1.85,1.85,0,0,0,.14-.14l.06-.06.09-.13.05-.07.06-.14a.14.14,0,0,1,0-.06.64.64,0,0,0,0-.2h0c0-2.29-10.81-4.14-24.12-4.14s-24.1,1.85-24.11,4.14h0Zm42.61,0c0,.85-2,1.62-5.11,2.2,2.35-.53,3.75-1.19,3.75-1.9,0-1.71-8.09-3.1-18.08-3.1-7.9,0-14.62.87-17.07,2.08,1.89-1.4,9.24-2.46,18-2.46C322.69,369,331,370.47,331,372.22Zm-25.49,1.24,1-.26a1.58,1.58,0,0,1,.37-.06,3.59,3.59,0,0,1,.47,0c.21,0,.42,0,.65,0l.79.09,1,.1c.37,0,.82.06,1.34.07l.49-1-1.91-.11c-.64-.05-1.21-.1-1.72-.17a6.51,6.51,0,0,1-1.24-.27c-.31-.11-.47-.24-.47-.41v0s0,0,0,0,.14-.23.42-.35a6.41,6.41,0,0,1,1.22-.31c.54-.09,1.19-.16,2-.22s1.68-.09,2.69-.09l.15-.3s.11-.07.28-.1a2.9,2.9,0,0,1,.65,0H315l0,.07h0l-.2.4c1,0,1.79.07,2.49.14s1.33.14,1.85.23l-.17,0,.17,0-.83.21a2.57,2.57,0,0,1-.38.08l-.47,0-.49,0-.65-.06-.81-.06-1-.06-.45.92L316,372c.65,0,1.24.1,1.76.16a8,8,0,0,1,1.26.25c.32.1.48.22.48.37a.06.06,0,0,1,0,0,0,0,0,0,1,0,0c0,.15-.14.29-.43.42a5.55,5.55,0,0,1-1.24.34,19.67,19.67,0,0,1-2,.24c-.8.06-1.71.1-2.74.11l-.17.35s-.11.07-.27.1a3.73,3.73,0,0,1-.65.05h-1.26l0-.07h0l.22-.44q-1.61,0-3-.15c-.94-.08-1.74-.17-2.41-.29l.18,0Z"/><path class="cls-14" d="M293.47,377.58v-2.81l-.22,0-.19,0-.47-.11-.16,0-.54-.15h-.05l-.56-.17-.07,0-.42-.14-.14-.05-.32-.13-.14-.05-.29-.13-.12-.05-.27-.14-.08,0-.31-.19,0,0-.23-.17-.06-.05a1.85,1.85,0,0,1-.14-.14l-.06-.06-.1-.13,0-.07-.06-.14a.14.14,0,0,1,0-.06.64.64,0,0,1,0-.2h0v7.91c0,1,1.91,1.85,5.11,2.55v-5.1Zm-2.87,2.64a.75.75,0,1,1-1.49,0v-4.74a.75.75,0,1,1,1.49,0Zm2.69.82a.76.76,0,0,1-.75.75h0a.76.76,0,0,1-.75-.75v-4.75a.76.76,0,0,1,.75-.75h0a.76.76,0,0,1,.75.75Z"/><path class="cls-15" d="M301.25,377a.76.76,0,0,0-.75.75v4.75a.75.75,0,0,0,1.5,0v-4.75A.75.75,0,0,0,301.25,377Z"/><path class="cls-13" d="M304.1,377.2a.75.75,0,0,0-.75.74v4.75a.75.75,0,0,0,1.5,0v-4.75A.75.75,0,0,0,304.1,377.2Z"/><path class="cls-13" d="M307,377.49a.76.76,0,0,0-.75.75V383a.75.75,0,0,0,1.5,0v-4.74A.76.76,0,0,0,307,377.49Z"/><path class="cls-13" d="M309.8,377.49a.76.76,0,0,0-.75.75V383a.75.75,0,0,0,1.5,0v-4.74A.76.76,0,0,0,309.8,377.49Z"/><path class="cls-13" d="M312.65,377.66a.76.76,0,0,0-.75.75v4.74a.75.75,0,0,0,1.5,0v-4.74A.76.76,0,0,0,312.65,377.66Z"/><path class="cls-13" d="M332.59,375.51a.76.76,0,0,0-.75.75V381a.75.75,0,0,0,1.5,0v-4.74A.75.75,0,0,0,332.59,375.51Z"/><path class="cls-14" d="M329.74,376a.75.75,0,0,0-.75.75v4.74a.75.75,0,0,0,1.5,0v-4.74A.74.74,0,0,0,329.74,376Z"/><path class="cls-14" d="M326.89,376.5a.74.74,0,0,0-.74.75V382a.75.75,0,1,0,1.49,0v-4.74A.74.74,0,0,0,326.89,376.5Z"/><path class="cls-14" d="M324.05,376.87a.75.75,0,0,0-.75.75v4.75a.75.75,0,1,0,1.49,0v-4.75A.75.75,0,0,0,324.05,376.87Z"/><path class="cls-13" d="M321.2,377.2a.74.74,0,0,0-.75.74v4.75a.75.75,0,1,0,1.49,0v-4.75A.74.74,0,0,0,321.2,377.2Z"/><path class="cls-13" d="M318.35,377.49a.75.75,0,0,0-.75.75V383a.75.75,0,0,0,1.5,0v-4.74A.76.76,0,0,0,318.35,377.49Z"/><path class="cls-13" d="M315.5,377.49a.75.75,0,0,0-.75.75V383a.75.75,0,0,0,1.5,0v-4.74A.76.76,0,0,0,315.5,377.49Z"/><path class="cls-13" d="M335.27,374.73a.76.76,0,0,0-.75.75v4.74a.75.75,0,0,0,1.5,0v-4.74A.75.75,0,0,0,335.27,374.73Z"/><path class="cls-15" d="M298.4,376.59h0a.75.75,0,0,0-.75.74v4.75a.76.76,0,0,0,.75.75h0a.75.75,0,0,0,.75-.75v-4.75A.74.74,0,0,0,298.4,376.59Z"/><path class="cls-15" d="M295.55,376.18a.74.74,0,0,0-.74.75v4.74a.75.75,0,1,0,1.49,0v-4.74A.74.74,0,0,0,295.55,376.18Z"/><path class="cls-13" d="M292.54,375.54h0a.76.76,0,0,0-.75.75V381a.76.76,0,0,0,.75.75h0a.76.76,0,0,0,.75-.75v-4.75A.76.76,0,0,0,292.54,375.54Z"/><path class="cls-13" d="M289.86,374.73a.75.75,0,0,0-.75.75v4.74a.75.75,0,1,0,1.49,0v-4.74A.75.75,0,0,0,289.86,374.73Z"/><path class="cls-12" d="M302.29,363.47c2.46-1.22,9.17-2.09,17.08-2.09,10,0,18.07,1.39,18.07,3.11,0,.71-1.4,1.37-3.74,1.89,3.16-.57,5.11-1.34,5.11-2.19,0-1.76-8.28-3.18-18.5-3.18C311.53,361,304.19,362.06,302.29,363.47Z"/><path class="cls-13" d="M317.54,363.46a2.64,2.64,0,0,0,.51.13l.76.09,1,.08.39-.81-1.26.05c-.36,0-.65.06-.88.1a2.29,2.29,0,0,0-.51.13c-.09,0-.13.08-.14.12A.3.3,0,0,0,317.54,363.46Z"/><path class="cls-13" d="M324.06,364.9s-.07-.09-.18-.13a3.76,3.76,0,0,0-.52-.12l-.79-.09-1-.07-.43.89a14.76,14.76,0,0,0,2.18-.17C323.77,365.13,324,365,324.06,364.9Z"/><path class="cls-13" d="M325.08,362.61c.63.07,1.19.13,1.68.21l.17-.05c-.53-.08-1.14-.16-1.85-.23s-1.53-.11-2.49-.14l0,.07C323.53,362.5,324.37,362.55,325.08,362.61Z"/><path class="cls-13" d="M318.72,365.93l-.21.44h0l.22-.44Z"/><path class="cls-13" d="M323.8,364.06c.65,0,1.23.09,1.76.16a7.35,7.35,0,0,1,1.26.25c.29.09.45.2.47.33v0c0-.15-.16-.28-.48-.37a7.35,7.35,0,0,0-1.26-.25c-.53-.07-1.11-.12-1.76-.16s-1.28-.08-1.93-.12l0,.07C322.5,364,323.15,364,323.8,364.06Z"/><path class="cls-13" d="M317.54,363.54a3.92,3.92,0,0,0,.51.12l.76.09,1,.08.43-.88h0l-.39.81-1-.08-.76-.09a2.64,2.64,0,0,1-.51-.13.3.3,0,0,1-.16-.11l0,0C317.36,363.44,317.42,363.49,317.54,363.54Z"/><path class="cls-13" d="M314.57,363.08a5.73,5.73,0,0,1,1.22-.31c.53-.09,1.19-.17,2-.23s1.68-.08,2.69-.08l.16-.31a.51.51,0,0,1,.27-.1,4,4,0,0,1,.65,0h1.22l0-.07h-1.26a4,4,0,0,0-.65,0,.51.51,0,0,0-.27.1l-.16.31c-1,0-1.9,0-2.69.08s-1.44.14-2,.23a5.73,5.73,0,0,0-1.22.31c-.28.11-.42.23-.42.35s0,0,0,0S314.31,363.18,314.57,363.08Z"/><path class="cls-13" d="M324.07,364.93a0,0,0,0,0,0,0c0,.13-.29.23-.74.31a14.76,14.76,0,0,1-2.18.17l0,.07a13.86,13.86,0,0,0,2.22-.17C323.82,365.19,324.07,365.07,324.07,364.93Z"/><path class="cls-13" d="M314.74,365.17l.47,0a5,5,0,0,1,.65,0l.79.08c.29,0,.63.07,1,.1s.83.06,1.34.08l.53-1.07h0l-.49,1c-.51,0-1,0-1.34-.08s-.71-.06-1-.1l-.79-.08a5,5,0,0,0-.65,0l-.47,0-.37.06-1.05.27.17,0,.88-.23Z"/><path class="cls-14" d="M315.73,365.78c.93.08,1.93.13,3,.15h0l-.22.44,0,.07h1.25a2.9,2.9,0,0,0,.65-.05c.17,0,.26-.06.28-.1l.17-.34c1,0,1.94-.05,2.74-.12a19.44,19.44,0,0,0,2-.24,5.5,5.5,0,0,0,1.25-.34c.29-.13.43-.27.43-.41s0,0,0,0-.18-.24-.47-.33a7.35,7.35,0,0,0-1.26-.25c-.53-.07-1.11-.12-1.76-.16s-1.3-.08-2-.12l0-.07.45-.91,1,.05.8.07.65.05.49,0a3.09,3.09,0,0,0,.47,0,2.66,2.66,0,0,0,.39-.07l.83-.22-.17,0c-.49-.08-1.05-.14-1.68-.21s-1.55-.11-2.53-.14l0-.07.2-.39h-1.26a4,4,0,0,0-.65,0,.51.51,0,0,0-.27.1l-.16.31c-1,0-1.9,0-2.69.08s-1.44.14-2,.23a5.73,5.73,0,0,0-1.22.31c-.26.1-.39.21-.41.32s0,0,0,0,.15.3.47.4a6.39,6.39,0,0,0,1.23.27c.51.07,1.09.13,1.73.17l1.9.11h0l-.53,1.07c-.51,0-1,0-1.34-.08s-.71-.06-1-.1l-.79-.08a5,5,0,0,0-.65,0l-.47,0-.37.06-.88.23-.17,0C314,365.61,314.79,365.71,315.73,365.78Zm5.41-.4.43-.89,1,.07.79.09a3.76,3.76,0,0,1,.52.12c.11,0,.16.08.18.13a0,0,0,0,1,0,0c0,.14-.25.26-.75.35a13.86,13.86,0,0,1-2.22.17Zm-3.76-2s.05-.08.14-.12a2.29,2.29,0,0,1,.51-.13c.23,0,.52-.07.88-.1l1.26-.05h0l-.43.88-1-.08-.76-.09a3.92,3.92,0,0,1-.51-.12c-.12-.05-.18-.1-.18-.16Z"/><path class="cls-12" d="M339.32,369.55v-2.81l-.2,0-.49.1-.35.07-.59.11-.3.05c-.3.06-.6.1-.91.15l-.33.05-.67.1-.41,0-.64.09-.43.05-.72.08-.37,0-1.12.11-.21,0-1,.09h-.13v7.9a67.38,67.38,0,0,0,8.83-1.2v-5.1Zm-6.69,4.78a.75.75,0,1,1-1.5,0v-4.74a.75.75,0,0,1,1.5,0Zm2.85-.37a.75.75,0,1,1-1.5,0v-4.75a.75.75,0,0,1,1.5,0Zm2.85-.52a.75.75,0,0,1-1.5,0v-4.75a.75.75,0,0,1,1.5,0Z"/><path class="cls-13" d="M310.13,368.34V368H310l-1-.09-.21,0-1.12-.11-.37,0-.72-.08-.43-.05-.64-.09-.41,0-.66-.1-.33-.05c-.32-.05-.62-.09-.92-.15l-.29-.05-.6-.11-.35-.07-.49-.1-.19,0v7.91a67,67,0,0,0,8.82,1.2v-7.51Zm-6,5.3a.75.75,0,0,1-1.5,0v-4.75a.75.75,0,0,1,1.5,0Zm2.85.41a.75.75,0,0,1-.75.74h0a.75.75,0,0,1-.75-.74V369.3a.76.76,0,0,1,.75-.75h0a.76.76,0,0,1,.75.75Zm2.85.4a.75.75,0,0,1-1.5,0v-4.74a.75.75,0,0,1,1.5,0Z"/><path class="cls-14" d="M330.49,368.34V368l-.27,0-.92.06-.45,0-1,.07h-.33l-1.47.06-.47,0-1.34,0h-.28l-1.5,0h-4.26l-1.5,0h-.28l-1.34,0-.47,0-1.47-.06h-.32l-1-.07-.46,0-.92-.06-.27,0v7.9c3.1.25,6.54.39,10.18.39s7.09-.14,10.18-.39v-7.51Zm-17.8,6.31a.75.75,0,0,1-1.5,0v-4.74a.75.75,0,0,1,1.5,0Zm2.85.3a.75.75,0,0,1-1.5,0V370.2a.75.75,0,0,1,1.5,0Zm2.85,0a.75.75,0,0,1-1.5,0V370.2a.75.75,0,0,1,1.5,0Zm2.84.17a.75.75,0,1,1-1.49,0v-4.74a.75.75,0,1,1,1.49,0Zm2.85-.17a.75.75,0,1,1-1.49,0V370.2a.75.75,0,0,1,1.49,0Zm2.85,0a.75.75,0,1,1-1.49,0V370.2a.75.75,0,0,1,1.49,0Zm2.85-.3a.75.75,0,0,1-1.5,0v-4.74a.75.75,0,0,1,1.5,0Z"/><path class="cls-14" d="M344.42,364.19h0a1.36,1.36,0,0,1,0,.2l0,.06a.38.38,0,0,1-.06.13.43.43,0,0,1,0,.07l-.09.13-.06.07L344,365l-.07.06-.22.17,0,0-.31.18-.07,0a2.44,2.44,0,0,1-.28.14l-.12.06-.28.12-.14.06-.33.12L342,366l-.43.14-.07,0-.56.17h-.05l-.54.14-.16,0-.47.12-.19,0-.21.05v7.91c3.2-.71,5.1-1.59,5.1-2.55v-7.91ZM341.18,373a.75.75,0,0,1-1.5,0v-4.74a.75.75,0,0,1,1.5,0Zm2.68-.78a.75.75,0,0,1-1.5,0v-4.75a.75.75,0,0,1,1.5,0Z"/><path class="cls-13" d="M296.2,364.19h0a.69.69,0,0,0,0,.2.14.14,0,0,0,0,.06.38.38,0,0,0,.06.13.43.43,0,0,0,0,.07.64.64,0,0,0,.1.13s0,.05.06.07l.13.13.07.06.22.17,0,0,.31.18.07,0a2.44,2.44,0,0,0,.28.14l.12.06.28.12.14.06.33.12.13.05.43.14.07,0,.56.17h.05l.54.14.16,0,.47.12.19,0,.41.09.49.1.35.07.6.11.29.05c.3.06.6.1.92.15l.33.05.66.1.41,0,.64.09.43.05.72.08.37,0,1.12.11.21,0,1,.09.4,0,.92.06.46,0,1,.07.32,0,1.47.06.47,0,1.34,0h.28l1.5,0h4.26l1.5,0h.28l1.34,0,.47,0,1.47-.06.33,0,1-.07.45,0,.92-.06.4,0,1-.09.21,0,1.12-.11.37,0,.72-.08.43-.05.64-.09.41,0,.67-.1.33-.05c.31-.05.61-.09.91-.15l.3-.05.59-.11.35-.07.49-.1.41-.09.19,0,.47-.12.16,0,.54-.14h.05l.56-.17.07,0L342,366l.13-.05.33-.12.14-.06.28-.12.12-.06a2.44,2.44,0,0,0,.28-.14l.07,0,.31-.18,0,0,.22-.17L344,365l.14-.13.06-.07.09-.13a.43.43,0,0,0,0-.07.38.38,0,0,0,.06-.13l0-.06a1.36,1.36,0,0,0,0-.2h0c0-2.28-10.8-4.14-24.11-4.14s-24.1,1.86-24.11,4.14h0Zm42.61,0c0,.85-1.95,1.62-5.11,2.19,2.34-.52,3.74-1.18,3.74-1.89,0-1.72-8.09-3.11-18.07-3.11-7.91,0-14.62.87-17.08,2.09,1.9-1.41,9.24-2.46,18-2.46C330.53,361,338.81,362.43,338.81,364.19Zm-25.49,1.24,1.05-.27.37-.06.47,0a5,5,0,0,1,.65,0l.79.08c.29,0,.63.07,1,.1s.83.06,1.34.08l.49-1-1.9-.11c-.64,0-1.22-.1-1.73-.17a6.39,6.39,0,0,1-1.23-.27c-.32-.1-.47-.24-.47-.4s0,0,0,0,0,0,0,0,.14-.24.42-.35a5.73,5.73,0,0,1,1.22-.31c.53-.09,1.19-.17,2-.23s1.68-.08,2.69-.08l.16-.31a.51.51,0,0,1,.27-.1,4,4,0,0,1,.65,0h1.26l0,.07h0l-.2.39c1,0,1.79.08,2.49.14s1.32.15,1.85.23l-.17.05.17,0-.83.22a2.66,2.66,0,0,1-.39.07,3.09,3.09,0,0,1-.47,0l-.49,0-.65-.05-.8-.07-1-.05-.45.91c.65,0,1.3.07,1.93.12s1.23.09,1.76.16a7.35,7.35,0,0,1,1.26.25c.32.09.48.22.48.37v0s0,0,0,0-.14.28-.43.41a5.5,5.5,0,0,1-1.25.34,19.44,19.44,0,0,1-2,.24c-.8.07-1.71.1-2.74.12l-.17.34s-.11.07-.28.1a2.9,2.9,0,0,1-.65.05h-1.25l0-.07h0l.21-.44c-1.06,0-2.06-.07-3-.15s-1.75-.17-2.41-.28l.17,0Z"/><path class="cls-14" d="M301.31,369.55v-2.81l-.22-.05-.19,0-.47-.12-.16,0-.54-.14h-.05l-.56-.17-.07,0-.43-.14-.13-.05-.33-.12-.14-.06-.28-.12-.12-.06a2.44,2.44,0,0,1-.28-.14l-.07,0-.31-.18,0,0-.22-.17-.07-.06-.13-.13s0-.05-.06-.07a.64.64,0,0,1-.1-.13.43.43,0,0,1,0-.07.38.38,0,0,1-.06-.13.14.14,0,0,1,0-.06.69.69,0,0,1,0-.2h0v7.91c0,1,1.9,1.84,5.11,2.55v-5.1Zm-2.87,2.64a.75.75,0,0,1-1.5,0v-4.75a.75.75,0,0,1,1.5,0Zm2.68.81a.74.74,0,0,1-.74.75h0a.74.74,0,0,1-.75-.75v-4.74a.74.74,0,0,1,.75-.75h0a.74.74,0,0,1,.74.75Z"/><path class="cls-15" d="M309.09,369a.75.75,0,0,0-.75.75v4.74a.75.75,0,0,0,1.5,0v-4.74A.75.75,0,0,0,309.09,369Z"/><path class="cls-13" d="M311.94,369.16a.75.75,0,0,0-.75.75v4.74a.75.75,0,0,0,1.5,0v-4.74A.76.76,0,0,0,311.94,369.16Z"/><path class="cls-13" d="M314.79,369.46a.74.74,0,0,0-.75.74V375a.75.75,0,0,0,1.5,0V370.2A.75.75,0,0,0,314.79,369.46Z"/><path class="cls-13" d="M317.64,369.46a.74.74,0,0,0-.75.74V375a.75.75,0,0,0,1.5,0V370.2A.75.75,0,0,0,317.64,369.46Z"/><path class="cls-13" d="M320.49,369.63a.74.74,0,0,0-.75.75v4.74a.75.75,0,1,0,1.49,0v-4.74A.74.74,0,0,0,320.49,369.63Z"/><path class="cls-13" d="M340.43,367.48a.75.75,0,0,0-.75.75V373a.75.75,0,0,0,1.5,0v-4.74A.75.75,0,0,0,340.43,367.48Z"/><path class="cls-14" d="M337.58,367.94a.76.76,0,0,0-.75.75v4.75a.75.75,0,0,0,1.5,0v-4.75A.76.76,0,0,0,337.58,367.94Z"/><path class="cls-14" d="M334.73,368.46a.76.76,0,0,0-.75.75V374a.75.75,0,1,0,1.5,0v-4.75A.76.76,0,0,0,334.73,368.46Z"/><path class="cls-14" d="M331.88,368.84a.76.76,0,0,0-.75.75v4.74a.75.75,0,1,0,1.5,0v-4.74A.75.75,0,0,0,331.88,368.84Z"/><path class="cls-13" d="M329,369.16a.76.76,0,0,0-.75.75v4.74a.75.75,0,0,0,1.5,0v-4.74A.75.75,0,0,0,329,369.16Z"/><path class="cls-13" d="M326.18,369.46a.74.74,0,0,0-.74.74V375a.75.75,0,1,0,1.49,0V370.2A.74.74,0,0,0,326.18,369.46Z"/><path class="cls-13" d="M323.33,369.46a.74.74,0,0,0-.74.74V375a.75.75,0,1,0,1.49,0V370.2A.74.74,0,0,0,323.33,369.46Z"/><path class="cls-13" d="M343.11,366.7a.75.75,0,0,0-.75.74v4.75a.75.75,0,0,0,1.5,0v-4.75A.75.75,0,0,0,343.11,366.7Z"/><path class="cls-15" d="M306.24,368.55h0a.76.76,0,0,0-.75.75v4.75a.75.75,0,0,0,.75.74h0a.75.75,0,0,0,.75-.74V369.3A.76.76,0,0,0,306.24,368.55Z"/><path class="cls-15" d="M303.39,368.15a.75.75,0,0,0-.75.74v4.75a.75.75,0,0,0,1.5,0v-4.75A.75.75,0,0,0,303.39,368.15Z"/><rect class="cls-13" x="299.63" y="367.51" width="1.5" height="6.24" rx="0.75"/><path class="cls-13" d="M297.69,366.7a.75.75,0,0,0-.75.74v4.75a.75.75,0,0,0,1.5,0v-4.75A.74.74,0,0,0,297.69,366.7Z"/><path class="cls-12" d="M231.14,411.75c2.87-1.43,10.73-2.45,20-2.45,11.69,0,21.16,1.63,21.16,3.64,0,.83-1.64,1.6-4.39,2.21,3.71-.66,6-1.57,6-2.56,0-2.06-9.69-3.72-21.65-3.72C242,408.87,233.36,410.1,231.14,411.75Z"/><path class="cls-13" d="M249,411.74a3.44,3.44,0,0,0,.59.14c.25.05.55.08.9.12l1.13.08.46-.94c-.58,0-1.07,0-1.48.06s-.77.07-1,.11a3.24,3.24,0,0,0-.59.15c-.11.05-.16.1-.17.15S248.89,411.7,249,411.74Z"/><path class="cls-13" d="M256.62,413.42q0-.09-.21-.15a3.51,3.51,0,0,0-.61-.14c-.26,0-.57-.08-.93-.11l-1.16-.08L253.2,414a19,19,0,0,0,2.55-.2C256.28,413.69,256.57,413.57,256.62,413.42Z"/><path class="cls-13" d="M257.81,410.75c.75.07,1.4.15,2,.23l.2-.05c-.62-.1-1.34-.19-2.17-.27s-1.79-.13-2.91-.16l-.05.08C256,410.61,257,410.67,257.81,410.75Z"/><path class="cls-13" d="M250.37,414.63l-.25.51h0l.25-.51Z"/><path class="cls-13" d="M256.32,412.43c.76.05,1.44.12,2.05.19a10.18,10.18,0,0,1,1.48.29c.35.11.53.24.55.4a.08.08,0,0,0,0,0c0-.18-.19-.32-.56-.44a10.18,10.18,0,0,0-1.48-.29c-.61-.08-1.29-.14-2.05-.19l-2.26-.13,0,.08Z"/><path class="cls-13" d="M249,411.82a3.31,3.31,0,0,0,.59.15c.25,0,.55.08.9.11l1.13.08.5-1h0l-.46.94-1.13-.08c-.35,0-.65-.07-.9-.12a3.44,3.44,0,0,1-.59-.14c-.1,0-.17-.08-.19-.13l0,0Q248.78,411.75,249,411.82Z"/><path class="cls-13" d="M245.51,411.29a6.36,6.36,0,0,1,1.43-.36q.93-.17,2.31-.27c.91-.07,2-.1,3.15-.1l.18-.35s.13-.09.32-.12a4,4,0,0,1,.76-.06h1.43l0-.08h-1.47a5.15,5.15,0,0,0-.76.05c-.19,0-.3.08-.32.12l-.18.36c-1.18,0-2.24,0-3.15.1s-1.69.16-2.31.26a7.68,7.68,0,0,0-1.43.36c-.33.14-.49.28-.49.42s0,0,0,0S245.21,411.41,245.51,411.29Z"/><path class="cls-13" d="M256.63,413.45a0,0,0,0,0,0,0c-.05.15-.34.27-.87.37a19,19,0,0,1-2.55.2l0,.08a17.86,17.86,0,0,0,2.59-.2C256.34,413.77,256.63,413.63,256.63,413.45Z"/><path class="cls-13" d="M245.7,413.74a5.12,5.12,0,0,1,.56,0,6.91,6.91,0,0,1,.76.05l.92.1,1.18.12c.44,0,1,.06,1.57.08l.61-1.24h0l-.57,1.16c-.61,0-1.13-.05-1.57-.09l-1.18-.11-.92-.11c-.27,0-.52,0-.76,0a5.12,5.12,0,0,0-.56,0,3,3,0,0,0-.43.07l-1.22.31.2,0,1-.26A3,3,0,0,1,245.7,413.74Z"/><path class="cls-14" d="M246.87,414.45c1.09.09,2.26.15,3.5.18h0l-.25.51,0,.09h1.47a3.89,3.89,0,0,0,.76-.06c.2,0,.3-.07.32-.12l.2-.4c1.2,0,2.28-.06,3.21-.14a22.2,22.2,0,0,0,2.37-.28,6.23,6.23,0,0,0,1.46-.4c.34-.15.5-.31.5-.48s0,0,0,0c0-.16-.2-.29-.55-.4a10.18,10.18,0,0,0-1.48-.29c-.61-.07-1.29-.14-2.05-.19l-2.3-.13,0-.08.52-1.07c.42,0,.8,0,1.15.06l.94.08.76.06.58,0a4.06,4.06,0,0,0,.54,0l.46-.08,1-.26-.2,0c-.57-.08-1.22-.16-2-.23s-1.81-.14-3-.17l.05-.08.23-.47h-1.47a4,4,0,0,0-.76.06c-.19,0-.3.07-.32.12l-.18.35c-1.18,0-2.24,0-3.15.1s-1.69.16-2.31.27a6.36,6.36,0,0,0-1.43.36c-.3.12-.45.24-.48.37v0c0,.19.18.35.54.47a8.21,8.21,0,0,0,1.45.32c.6.08,1.27.15,2,.2l2.23.13h0l-.61,1.24c-.61,0-1.13-.05-1.57-.08l-1.18-.12-.92-.1a6.91,6.91,0,0,0-.76-.05,5.12,5.12,0,0,0-.56,0,3,3,0,0,0-.43.07l-1,.26-.2.05Q245.21,414.32,246.87,414.45Zm6.33-.46.51-1.05,1.16.08c.36,0,.67.07.93.11a3.51,3.51,0,0,1,.61.14q.18.06.21.15a0,0,0,0,1,0,0c0,.18-.29.32-.88.42a17.86,17.86,0,0,1-2.59.2Zm-4.4-2.38c0-.05.06-.1.17-.15a3.24,3.24,0,0,1,.59-.15c.26,0,.61-.08,1-.11s.9-.05,1.48-.06h0l-.5,1-1.13-.08c-.35,0-.65-.07-.9-.11a3.31,3.31,0,0,1-.59-.15q-.21-.07-.21-.18Z"/><path class="cls-12" d="M274.48,418.86v-3.29l-.22.05-.58.12-.41.08-.7.13-.35.06-1.06.18-.39.06-.78.11-.48.06-.75.1-.5.06-.84.1-.44.05-1.31.13-.25,0-1.12.09-.16,0v9.26a80.12,80.12,0,0,0,10.34-1.42v-6Zm-7.83,5.61a.88.88,0,0,1-1.75,0v-5.56a.88.88,0,1,1,1.75,0ZM270,424a.88.88,0,0,1-1.75,0v-5.56a.88.88,0,1,1,1.75,0Zm3.34-.62a.88.88,0,0,1-1.76,0v-5.55a.88.88,0,0,1,1.76,0Z"/><path class="cls-13" d="M240.32,417.45V417l-.16,0-1.12-.09-.25,0-1.31-.13-.44-.05-.84-.1-.5-.06-.75-.1-.48-.06-.78-.11-.38-.06-1.07-.18-.35-.06-.7-.13-.41-.08-.58-.12-.22-.05v9.26a80.12,80.12,0,0,0,10.34,1.42v-8.8Zm-7,6.2a.88.88,0,0,1-1.76,0V418.1a.88.88,0,0,1,1.76,0Zm3.33.48a.87.87,0,0,1-.87.87h0a.87.87,0,0,1-.88-.87v-5.56a.87.87,0,0,1,.88-.87h0a.87.87,0,0,1,.87.87Zm3.34.47a.88.88,0,1,1-1.75,0v-5.55a.88.88,0,1,1,1.75,0Z"/><path class="cls-14" d="M264.14,417.45V417l-.31,0-1.07.08-.54,0-1.19.07-.32,0h-.06l-1.72.08-.55,0-1.57.06h-.33l-1.75,0h-5l-1.75,0h-.33l-1.57-.06-.55,0-1.72-.08h-.06l-.32,0-1.19-.07-.54,0-1.07-.08-.31,0v9.26c3.62.29,7.65.45,11.91.45s8.29-.16,11.91-.45v-8.8Zm-20.84,7.39a.88.88,0,1,1-1.75,0v-5.55a.88.88,0,1,1,1.75,0Zm3.34.35a.88.88,0,0,1-1.75,0v-5.56a.88.88,0,1,1,1.75,0Zm3.34,0a.88.88,0,0,1-1.76,0v-5.56a.88.88,0,0,1,1.76,0Zm3.33.2a.88.88,0,0,1-1.75,0v-5.56a.88.88,0,1,1,1.75,0Zm3.34-.2a.88.88,0,0,1-1.76,0v-5.56a.88.88,0,1,1,1.76,0Zm3.33,0a.88.88,0,0,1-1.75,0v-5.56a.88.88,0,1,1,1.75,0Zm3.34-.35a.88.88,0,1,1-1.75,0v-5.55a.88.88,0,1,1,1.75,0Z"/><path class="cls-14" d="M280.46,412.59h0a.91.91,0,0,1,0,.23l0,.07a.77.77,0,0,1-.07.16.22.22,0,0,1-.05.08l-.11.15a.27.27,0,0,1-.07.08c-.05.05-.1.11-.16.16l-.08.06-.26.2,0,0a3.13,3.13,0,0,1-.36.22l-.09.05-.33.16-.14.07-.33.14-.16.07-.38.14-.16.06-.5.17-.08,0-.66.19-.05,0-.63.17-.19,0-.56.14-.22,0-.25.05v9.26c3.75-.82,6-1.86,6-3v-9.26Zm-3.8,10.28a.88.88,0,1,1-1.75,0v-5.56a.88.88,0,0,1,1.75,0Zm3.14-.91a.88.88,0,0,1-1.75,0V416.4a.88.88,0,1,1,1.75,0Z"/><path class="cls-13" d="M224,412.59h0a.91.91,0,0,0,0,.23l0,.07a.77.77,0,0,0,.07.16.22.22,0,0,0,.05.08l.11.15.07.08c0,.05.1.11.16.16l.08.07.26.19,0,0a3.13,3.13,0,0,0,.36.22l.09.05.33.16.14.07.33.14.16.07.38.14.16.06.5.17.08,0,.66.19.06,0,.63.17.18,0,.56.14.22,0,.47.1.58.12.41.08.7.13.35.06,1.07.18.38.06.78.11.48.06.75.1.5.06.84.1.44.05,1.31.13.25,0,1.12.09.47,0,1.07.08.54,0,1.19.07.38,0,1.72.08.55,0,1.57.06H248l1.75,0h5l1.75,0h.33l1.57-.06.55,0,1.72-.08.38,0,1.19-.07.54,0,1.07-.08.47,0,1.12-.09.25,0,1.31-.13.44-.05.84-.1.5-.06.75-.1.48-.06.78-.11.39-.06,1.06-.18.35-.06.7-.13.41-.08.58-.12.47-.1.22,0,.56-.14.19,0,.63-.17.05,0,.66-.19.08,0,.5-.17.16-.06.38-.14.16-.07.33-.14.14-.07.33-.16.09-.05a3.13,3.13,0,0,0,.36-.22l0,0,.26-.2.08-.06c.06,0,.11-.11.16-.16a.27.27,0,0,0,.07-.08l.11-.15a.22.22,0,0,0,.05-.08.77.77,0,0,0,.07-.16l0-.07a.91.91,0,0,0,0-.23h0c0-2.67-12.65-4.84-28.23-4.84S224,409.91,224,412.58h0Zm49.88,0c0,1-2.27,1.9-6,2.56,2.75-.61,4.39-1.38,4.39-2.21,0-2-9.47-3.64-21.16-3.64-9.26,0-17.12,1-20,2.45,2.22-1.65,10.81-2.88,21.09-2.88C264.19,408.87,273.88,410.53,273.88,412.59ZM244.05,414l1.22-.31a3,3,0,0,1,.43-.07,5.12,5.12,0,0,1,.56,0c.24,0,.49,0,.76,0l.92.11,1.18.11c.44,0,1,.07,1.57.09l.57-1.16-2.23-.13c-.75-.05-1.42-.12-2-.2a8.21,8.21,0,0,1-1.45-.32c-.36-.12-.54-.28-.54-.47v0s0,0,0,0,.16-.28.49-.42a7.68,7.68,0,0,1,1.43-.36c.62-.1,1.39-.19,2.31-.26s2-.1,3.15-.1l.18-.36s.13-.08.32-.12a5.15,5.15,0,0,1,.76-.05h1.47l0,.08h0l-.23.47c1.12,0,2.09.08,2.91.16s1.55.17,2.17.27l-.2.05.2,0-1,.26-.46.08a4.06,4.06,0,0,1-.54,0l-.58,0-.76-.06-.94-.08c-.35,0-.73,0-1.15-.06l-.52,1.07,2.26.13c.76,0,1.44.11,2.05.19a10.18,10.18,0,0,1,1.48.29c.37.12.56.26.56.44a.08.08,0,0,1,0,0s0,0,0,0-.16.33-.5.48a6.23,6.23,0,0,1-1.46.4,22.2,22.2,0,0,1-2.37.28c-.93.08-2,.12-3.21.14l-.2.4c0,.05-.12.09-.32.12a3.89,3.89,0,0,1-.76.06h-1.47l0-.09h0l.25-.51c-1.24,0-2.41-.09-3.5-.18s-2.05-.2-2.82-.33l.2-.05Z"/><path class="cls-14" d="M230,418.86v-3.29l-.25-.05-.22,0-.56-.14-.18,0-.63-.17-.06,0-.66-.19-.08,0-.5-.17-.16-.06-.38-.14-.16-.07-.33-.14-.14-.07-.33-.16-.09-.05a3.13,3.13,0,0,1-.36-.22l0,0-.26-.19-.08-.07c-.06,0-.11-.11-.16-.16l-.07-.08-.11-.15a.22.22,0,0,1-.05-.08.77.77,0,0,1-.07-.16l0-.07a.91.91,0,0,1,0-.23h0v9.26c0,1.12,2.23,2.16,6,3v-6Zm-3.35,3.1a.88.88,0,0,1-1.76,0V416.4a.88.88,0,0,1,1.76,0Zm3.14,1a.87.87,0,0,1-.88.87h0a.88.88,0,0,1-.88-.87v-5.56a.88.88,0,0,1,.88-.87h0a.87.87,0,0,1,.88.87Z"/><path class="cls-15" d="M239.09,418.17a.87.87,0,0,0-.87.88v5.55a.88.88,0,1,0,1.75,0v-5.55A.87.87,0,0,0,239.09,418.17Z"/><path class="cls-13" d="M242.43,418.41a.87.87,0,0,0-.88.88v5.55a.88.88,0,1,0,1.75,0v-5.55A.87.87,0,0,0,242.43,418.41Z"/><path class="cls-13" d="M245.76,418.75a.88.88,0,0,0-.87.88v5.56a.88.88,0,0,0,1.75,0v-5.56A.88.88,0,0,0,245.76,418.75Z"/><path class="cls-13" d="M249.1,418.75a.89.89,0,0,0-.88.88v5.56a.88.88,0,0,0,1.76,0v-5.56A.89.89,0,0,0,249.1,418.75Z"/><path class="cls-13" d="M252.44,419a.88.88,0,0,0-.88.88v5.56a.88.88,0,0,0,1.75,0v-5.56A.88.88,0,0,0,252.44,419Z"/><path class="cls-13" d="M275.78,416.44a.87.87,0,0,0-.87.87v5.56a.88.88,0,1,0,1.75,0v-5.56A.87.87,0,0,0,275.78,416.44Z"/><path class="cls-14" d="M272.45,417a.87.87,0,0,0-.88.88v5.55a.88.88,0,0,0,1.76,0v-5.55A.88.88,0,0,0,272.45,417Z"/><path class="cls-14" d="M269.11,417.59a.88.88,0,0,0-.87.88V424a.88.88,0,0,0,1.75,0v-5.56A.88.88,0,0,0,269.11,417.59Z"/><path class="cls-14" d="M265.78,418a.88.88,0,0,0-.88.88v5.56a.88.88,0,0,0,1.75,0v-5.56A.88.88,0,0,0,265.78,418Z"/><path class="cls-13" d="M262.44,418.41a.87.87,0,0,0-.87.88v5.55a.88.88,0,1,0,1.75,0v-5.55A.87.87,0,0,0,262.44,418.41Z"/><path class="cls-13" d="M259.11,418.75a.88.88,0,0,0-.88.88v5.56a.88.88,0,0,0,1.75,0v-5.56A.88.88,0,0,0,259.11,418.75Z"/><path class="cls-13" d="M255.77,418.75a.89.89,0,0,0-.88.88v5.56a.88.88,0,0,0,1.76,0v-5.56A.89.89,0,0,0,255.77,418.75Z"/><path class="cls-13" d="M278.92,415.52a.88.88,0,0,0-.87.88V422a.88.88,0,0,0,1.75,0V416.4A.88.88,0,0,0,278.92,415.52Z"/><path class="cls-15" d="M235.76,417.7h0a.87.87,0,0,0-.88.87v5.56a.87.87,0,0,0,.88.87h0a.87.87,0,0,0,.87-.87v-5.56A.87.87,0,0,0,235.76,417.7Z"/><path class="cls-15" d="M232.42,417.22a.88.88,0,0,0-.88.88v5.55a.88.88,0,0,0,1.76,0V418.1A.87.87,0,0,0,232.42,417.22Z"/><path class="cls-13" d="M228.89,416.48h0a.88.88,0,0,0-.88.87v5.56a.88.88,0,0,0,.88.87h0a.87.87,0,0,0,.88-.87v-5.56A.87.87,0,0,0,228.89,416.48Z"/><path class="cls-13" d="M225.75,415.52a.89.89,0,0,0-.88.88V422a.88.88,0,0,0,1.76,0V416.4A.89.89,0,0,0,225.75,415.52Z"/><path class="cls-12" d="M236.63,401.07c2.87-1.42,10.74-2.44,20-2.44,11.68,0,21.16,1.63,21.16,3.63,0,.84-1.64,1.61-4.39,2.22,3.7-.67,6-1.57,6-2.57,0-2.05-9.7-3.72-21.65-3.72C247.45,398.19,238.85,399.42,236.63,401.07Z"/><path class="cls-13" d="M254.49,401.07a3.08,3.08,0,0,0,.58.14c.26,0,.56.08.9.11l1.13.09.46-1c-.57,0-1.07,0-1.48.07s-.76.07-1,.11a2.73,2.73,0,0,0-.59.15c-.1,0-.15.09-.17.14A.37.37,0,0,0,254.49,401.07Z"/><path class="cls-13" d="M262.12,402.74c0-.05-.09-.1-.21-.14a3.61,3.61,0,0,0-.61-.15c-.27,0-.58-.07-.93-.1l-1.17-.08-.51,1a17.92,17.92,0,0,0,2.56-.19C261.78,403,262.07,402.89,262.12,402.74Z"/><path class="cls-13" d="M263.31,400.07c.74.07,1.39.15,2,.24l.2-.05q-.92-.15-2.16-.27c-.82-.08-1.8-.13-2.92-.17l0,.08C261.49,399.94,262.48,400,263.31,400.07Z"/><path class="cls-13" d="M255.87,404l-.25.51h0l.25-.51Z"/><path class="cls-13" d="M261.81,401.76c.76.05,1.45.11,2.06.19a9.06,9.06,0,0,1,1.47.29c.35.11.53.24.56.4,0,0,0,0,0-.05s-.19-.32-.57-.43a8.1,8.1,0,0,0-1.47-.29c-.61-.08-1.3-.14-2.06-.19l-2.26-.14,0,.08Z"/><path class="cls-13" d="M254.49,401.15a3.08,3.08,0,0,0,.58.14c.26,0,.56.08.9.11s.72.07,1.13.09l.5-1h0l-.46,1-1.13-.09c-.34,0-.64-.07-.9-.11a3.08,3.08,0,0,1-.58-.14.37.37,0,0,1-.2-.14l0,0C254.27,401,254.35,401.1,254.49,401.15Z"/><path class="cls-13" d="M251,400.61a7.9,7.9,0,0,1,1.43-.36c.63-.1,1.4-.19,2.31-.26s2-.1,3.15-.1l.18-.36s.13-.08.33-.12a5,5,0,0,1,.76-.05h1.42l.05-.08h-1.47a3.94,3.94,0,0,0-.76.05q-.3.06-.33.12l-.18.35c-1.18,0-2.23,0-3.15.11s-1.68.15-2.31.26a7.13,7.13,0,0,0-1.43.36c-.33.13-.49.27-.49.41s0,0,0,.05S250.7,400.73,251,400.61Z"/><path class="cls-13" d="M262.13,402.78v0c-.05.15-.34.28-.87.38a17.92,17.92,0,0,1-2.56.19l0,.09a19.77,19.77,0,0,0,2.6-.2C261.83,403.09,262.13,403,262.13,402.78Z"/><path class="cls-13" d="M251.2,403.07a4.86,4.86,0,0,1,.56,0,6.75,6.75,0,0,1,.75,0l.93.1,1.17.12c.45,0,1,.07,1.57.09l.62-1.25h0l-.58,1.16c-.6,0-1.12,0-1.57-.08l-1.17-.12-.93-.1a6.75,6.75,0,0,0-.75,0l-.56,0a3,3,0,0,0-.43.07l-1.23.32.2,0,1-.26A2,2,0,0,1,251.2,403.07Z"/><path class="cls-14" d="M252.36,403.78q1.63.14,3.51.18h0l-.25.51,0,.08h1.47a5.15,5.15,0,0,0,.76-.05c.19,0,.3-.08.32-.12l.19-.41c1.21,0,2.28-.06,3.22-.13s1.73-.17,2.36-.28a6.89,6.89,0,0,0,1.47-.4c.33-.15.5-.31.5-.49v0c0-.16-.21-.29-.56-.4a9.06,9.06,0,0,0-1.47-.29c-.61-.08-1.3-.14-2.06-.19l-2.3-.14,0-.08.53-1.07,1.14.07.95.07.76.07c.22,0,.41,0,.57,0a4.45,4.45,0,0,0,.55,0,3.58,3.58,0,0,0,.45-.09l1-.25-.2,0c-.57-.09-1.22-.17-2-.24s-1.82-.13-3-.17l0-.08.24-.46h-1.47a5,5,0,0,0-.76.05q-.3.06-.33.12l-.18.36c-1.18,0-2.23,0-3.15.1s-1.68.16-2.31.26a7.9,7.9,0,0,0-1.43.36c-.3.12-.45.25-.48.38s0,0,0,0c0,.19.18.34.55.47a7.53,7.53,0,0,0,1.44.31c.6.09,1.28.15,2,.2l2.24.13h0l-.62,1.25c-.6,0-1.12-.05-1.57-.09l-1.17-.12-.93-.1a6.75,6.75,0,0,0-.75,0,4.86,4.86,0,0,0-.56,0,2,2,0,0,0-.43.07l-1,.26-.2.05Q250.71,403.65,252.36,403.78Zm6.33-.47.51-1,1.17.08c.35,0,.66.06.93.1a3.61,3.61,0,0,1,.61.15c.12,0,.19.09.21.14v0c0,.17-.3.31-.88.42a19.77,19.77,0,0,1-2.6.2Zm-4.4-2.38c0-.05.07-.09.17-.14a2.73,2.73,0,0,1,.59-.15c.27,0,.62-.08,1-.11s.91,0,1.48-.07h0l-.5,1c-.41,0-.78-.05-1.13-.09s-.64-.07-.9-.11a3.08,3.08,0,0,1-.58-.14c-.14,0-.22-.12-.22-.19Z"/><path class="cls-12" d="M280,408.19V404.9l-.23.05-.57.12-.42.08-.69.13-.35.06-1.07.17-.39.06-.77.11-.48.07-.76.1-.49.06-.85.09-.44.05-1.3.13-.25,0-1.13.1h-.15v9.26A79.07,79.07,0,0,0,280,414.16v-6Zm-7.83,5.6a.88.88,0,1,1-1.75,0v-5.55a.88.88,0,1,1,1.75,0Zm3.33-.44a.88.88,0,1,1-1.75,0V407.8a.88.88,0,1,1,1.75,0Zm3.34-.61a.88.88,0,1,1-1.75,0v-5.55a.88.88,0,1,1,1.75,0Z"/><path class="cls-13" d="M245.81,406.77v-.46h-.15l-1.13-.1-.25,0-1.3-.13-.44-.05-.85-.09-.49-.06-.76-.1-.48-.07-.77-.11-.39-.06-1.07-.17-.35-.06-.69-.13-.41-.08-.58-.12-.23-.05v9.26a79.07,79.07,0,0,0,10.34,1.41v-8.8Zm-7,6.21a.88.88,0,0,1-1.75,0v-5.56a.88.88,0,0,1,1.75,0Zm3.34.47a.87.87,0,0,1-.88.88h0a.88.88,0,0,1-.88-.88V407.9a.88.88,0,0,1,.88-.88h0a.87.87,0,0,1,.88.88Zm3.33.48a.88.88,0,1,1-1.75,0v-5.56a.88.88,0,0,1,1.75,0Z"/><path class="cls-14" d="M269.64,406.77v-.46l-.32,0-1.07.08-.53,0-1.2.07-.31,0h-.07l-1.71.08-.56,0-1.57.05H262l-1.76,0h-5l-1.76,0h-.32l-1.57-.05-.56,0-1.71-.08h-.07l-.31,0-1.2-.07-.53,0-1.08-.08-.31,0v9.26c3.62.29,7.66.45,11.92.45s8.29-.16,11.91-.45v-8.8Zm-20.84,7.4a.88.88,0,0,1-1.75,0v-5.56a.88.88,0,0,1,1.75,0Zm3.34.34a.88.88,0,0,1-1.76,0V409a.88.88,0,0,1,1.76,0Zm3.33,0a.88.88,0,1,1-1.75,0V409a.88.88,0,1,1,1.75,0Zm3.34.2a.88.88,0,0,1-1.76,0v-5.55a.88.88,0,0,1,1.76,0Zm3.33-.2a.88.88,0,1,1-1.75,0V409a.88.88,0,1,1,1.75,0Zm3.34,0a.88.88,0,0,1-1.76,0V409a.88.88,0,1,1,1.76,0Zm3.33-.34a.88.88,0,0,1-1.75,0v-5.56a.88.88,0,0,1,1.75,0Z"/><path class="cls-14" d="M286,401.91h0a1,1,0,0,1,0,.24.25.25,0,0,1,0,.07s0,.1-.07.16a.22.22,0,0,0-.05.08,1.58,1.58,0,0,1-.12.15l-.06.08-.17.15a.23.23,0,0,1-.07.07,3.16,3.16,0,0,1-.27.2l0,0-.36.22-.08,0-.33.17-.14.06-.33.15-.17.06-.37.15-.16.06-.5.16-.09,0-.65.2h-.06l-.63.17-.19.05-.55.13-.22,0-.25.06v9.26c3.74-.82,6-1.86,6-3v-9.26Zm-3.8,10.29a.88.88,0,0,1-1.76,0v-5.56a.88.88,0,1,1,1.76,0Zm3.13-.92a.88.88,0,1,1-1.75,0v-5.55a.88.88,0,1,1,1.75,0Z"/><path class="cls-13" d="M229.49,401.91h0a1,1,0,0,0,0,.24s0,0,0,.07,0,.1.07.16a.22.22,0,0,1,0,.08,1.58,1.58,0,0,0,.12.15l.06.08.17.15a.46.46,0,0,0,.07.07,3.16,3.16,0,0,0,.27.2l0,0,.36.22.08,0,.33.17.14.06.33.15.17.06.37.15.16.06.5.16.09,0,.65.2h.06l.63.17.19.05.55.13.22,0,.48.11.58.12.41.08.69.13.35.06,1.07.17.39.06.77.11.48.07.76.1.49.06.85.09.44.05,1.3.13.25,0,1.13.1.46,0,1.08.08.53,0,1.2.07.38,0,1.71.08.56,0,1.57.05h.32l1.76,0h5l1.76,0h.32l1.57-.05.56,0,1.71-.08.38,0,1.2-.07.53,0,1.07-.08.47,0,1.13-.1.25,0,1.3-.13.44-.05.85-.09.49-.06.76-.1.48-.07.77-.11.39-.06,1.07-.17.35-.06.69-.13.42-.08.57-.12.48-.11.22,0,.55-.13.19-.05.63-.17h.06l.65-.2.09,0,.5-.16.16-.06.37-.15.17-.06.33-.15.14-.06.33-.17.08,0,.36-.22,0,0a3.16,3.16,0,0,0,.27-.2.23.23,0,0,0,.07-.07l.17-.15.06-.08a1.58,1.58,0,0,0,.12-.15.22.22,0,0,1,.05-.08c0-.06.05-.11.07-.16a.25.25,0,0,0,0-.07,1,1,0,0,0,0-.24h0c0-2.68-12.65-4.85-28.23-4.85s-28.22,2.17-28.24,4.85h0Zm49.89,0c0,1-2.28,1.9-6,2.57,2.75-.61,4.39-1.38,4.39-2.22,0-2-9.48-3.63-21.16-3.63-9.26,0-17.13,1-20,2.44,2.22-1.65,10.82-2.88,21.1-2.88C269.68,398.19,279.38,399.86,279.38,401.91Zm-29.84,1.46,1.23-.32a3,3,0,0,1,.43-.07l.56,0a6.75,6.75,0,0,1,.75,0l.93.1,1.17.12c.45,0,1,.07,1.57.08l.58-1.16-2.24-.13c-.74-.05-1.42-.11-2-.2a7.53,7.53,0,0,1-1.44-.31c-.37-.13-.55-.28-.55-.47,0,0,0,0,0,0s0,0,0-.05.16-.28.49-.41a7.13,7.13,0,0,1,1.43-.36c.63-.11,1.4-.19,2.31-.26s2-.11,3.15-.11l.18-.35s.13-.08.33-.12a3.94,3.94,0,0,1,.76-.05h1.47l-.05.08h.05l-.24.46c1.12,0,2.1.09,2.92.17s1.55.17,2.16.27l-.2.05.2,0-1,.25a3.58,3.58,0,0,1-.45.09,4.45,4.45,0,0,1-.55,0c-.16,0-.35,0-.57,0l-.76-.07-.95-.07-1.14-.07-.53,1.07,2.26.14c.76.05,1.45.11,2.06.19a8.1,8.1,0,0,1,1.47.29c.38.11.57.26.57.43s0,0,0,.05v0c0,.18-.17.34-.5.49a6.89,6.89,0,0,1-1.47.4c-.63.11-1.42.21-2.36.28s-2,.12-3.22.13l-.19.41s-.13.08-.32.12a5.15,5.15,0,0,1-.76.05h-1.47l0-.08h0l.25-.51q-1.87,0-3.51-.18t-2.82-.33l.2-.05Z"/><path class="cls-14" d="M235.47,408.19V404.9l-.25-.06-.22,0-.55-.13-.19-.05-.63-.17h-.06l-.65-.2-.09,0-.5-.16-.16-.06-.37-.15-.17-.06-.33-.15-.14-.06-.33-.17-.08,0-.36-.22,0,0a3.16,3.16,0,0,1-.27-.2.46.46,0,0,1-.07-.07l-.17-.15-.06-.08a1.58,1.58,0,0,1-.12-.15.22.22,0,0,0,0-.08c0-.06-.05-.11-.07-.16s0-.05,0-.07a1,1,0,0,1,0-.24h0v9.26c0,1.13,2.24,2.17,6,3v-6Zm-3.35,3.09a.88.88,0,1,1-1.75,0v-5.55a.88.88,0,1,1,1.75,0Zm3.14,1a.87.87,0,0,1-.87.88h0a.87.87,0,0,1-.88-.88v-5.55a.87.87,0,0,1,.88-.88h0a.87.87,0,0,1,.87.88Z"/><path class="cls-15" d="M244.59,407.5a.87.87,0,0,0-.88.87v5.56a.88.88,0,1,0,1.75,0v-5.56A.87.87,0,0,0,244.59,407.5Z"/><path class="cls-13" d="M247.92,407.74a.87.87,0,0,0-.87.87v5.56a.88.88,0,0,0,1.75,0v-5.56A.87.87,0,0,0,247.92,407.74Z"/><path class="cls-13" d="M251.26,408.08a.87.87,0,0,0-.88.88v5.55a.88.88,0,0,0,1.76,0V409A.88.88,0,0,0,251.26,408.08Z"/><path class="cls-13" d="M254.59,408.08a.87.87,0,0,0-.87.88v5.55a.88.88,0,1,0,1.75,0V409A.87.87,0,0,0,254.59,408.08Z"/><path class="cls-13" d="M257.93,408.28a.88.88,0,0,0-.88.88v5.55a.88.88,0,0,0,1.76,0v-5.55A.88.88,0,0,0,257.93,408.28Z"/><path class="cls-13" d="M281.28,405.76a.89.89,0,0,0-.88.88v5.56a.88.88,0,0,0,1.76,0v-5.56A.89.89,0,0,0,281.28,405.76Z"/><path class="cls-14" d="M277.94,406.31a.87.87,0,0,0-.87.88v5.55a.88.88,0,1,0,1.75,0v-5.55A.87.87,0,0,0,277.94,406.31Z"/><path class="cls-14" d="M274.61,406.92a.87.87,0,0,0-.88.88v5.55a.88.88,0,1,0,1.75,0V407.8A.87.87,0,0,0,274.61,406.92Z"/><path class="cls-14" d="M271.27,407.36a.87.87,0,0,0-.87.88v5.55a.88.88,0,1,0,1.75,0v-5.55A.87.87,0,0,0,271.27,407.36Z"/><path class="cls-13" d="M267.94,407.74a.87.87,0,0,0-.88.87v5.56a.88.88,0,0,0,1.75,0v-5.56A.87.87,0,0,0,267.94,407.74Z"/><path class="cls-13" d="M264.6,408.08a.88.88,0,0,0-.88.88v5.55a.88.88,0,0,0,1.76,0V409A.87.87,0,0,0,264.6,408.08Z"/><path class="cls-13" d="M261.27,408.08a.87.87,0,0,0-.88.88v5.55a.88.88,0,1,0,1.75,0V409A.87.87,0,0,0,261.27,408.08Z"/><path class="cls-13" d="M284.42,404.85a.87.87,0,0,0-.88.88v5.55a.88.88,0,1,0,1.75,0v-5.55A.87.87,0,0,0,284.42,404.85Z"/><path class="cls-15" d="M241.25,407h0a.88.88,0,0,0-.88.88v5.55a.88.88,0,0,0,.88.88h0a.87.87,0,0,0,.88-.88V407.9A.87.87,0,0,0,241.25,407Z"/><path class="cls-15" d="M237.92,406.55a.87.87,0,0,0-.88.87V413a.88.88,0,0,0,1.75,0v-5.56A.87.87,0,0,0,237.92,406.55Z"/><path class="cls-13" d="M234.39,405.8h0a.87.87,0,0,0-.88.88v5.55a.87.87,0,0,0,.88.88h0a.87.87,0,0,0,.87-.88v-5.55A.87.87,0,0,0,234.39,405.8Z"/><path class="cls-13" d="M231.24,404.85a.87.87,0,0,0-.87.88v5.55a.88.88,0,1,0,1.75,0v-5.55A.87.87,0,0,0,231.24,404.85Z"/><path class="cls-12" d="M228.7,390.4c2.87-1.42,10.73-2.45,20-2.45,11.68,0,21.16,1.63,21.16,3.64,0,.83-1.64,1.6-4.39,2.22,3.7-.67,6-1.57,6-2.57,0-2.06-9.69-3.72-21.65-3.72C239.51,387.52,230.91,388.75,228.7,390.4Z"/><path class="cls-13" d="M246.55,390.39a3.31,3.31,0,0,0,.59.15l.89.11,1.14.08.46-.94c-.58,0-1.07,0-1.48.06a9.76,9.76,0,0,0-1,.12,2.36,2.36,0,0,0-.59.15.28.28,0,0,0-.17.14A.41.41,0,0,0,246.55,390.39Z"/><path class="cls-13" d="M254.18,392.07q0-.09-.21-.15a3.51,3.51,0,0,0-.61-.14c-.27,0-.57-.07-.93-.1l-1.16-.09-.51,1.05a17.47,17.47,0,0,0,2.55-.2C253.84,392.34,254.13,392.22,254.18,392.07Z"/><path class="cls-13" d="M255.37,389.4c.74.07,1.39.15,2,.24l.2-.06c-.62-.1-1.34-.19-2.17-.27s-1.79-.13-2.92-.16l0,.08C253.55,389.26,254.54,389.32,255.37,389.4Z"/><path class="cls-13" d="M247.93,393.28l-.25.51h0l.25-.51Z"/><path class="cls-13" d="M253.87,391.08c.76.05,1.45.12,2.06.2a8.05,8.05,0,0,1,1.48.29c.34.1.52.23.55.39v0c0-.18-.19-.32-.56-.44a10.18,10.18,0,0,0-1.48-.29c-.61-.08-1.3-.14-2.06-.19l-2.26-.13,0,.08Z"/><path class="cls-13" d="M246.55,390.48a3.44,3.44,0,0,0,.59.14c.25,0,.55.08.89.11l1.14.09.5-1h0l-.46.94-1.14-.08-.89-.11a3.31,3.31,0,0,1-.59-.15.41.41,0,0,1-.2-.13s0,0,0,0S246.41,390.42,246.55,390.48Z"/><path class="cls-13" d="M243.07,389.94a6.36,6.36,0,0,1,1.43-.36,21.46,21.46,0,0,1,2.31-.26c.91-.07,2-.11,3.15-.11l.18-.35c0-.05.12-.09.32-.12a3.89,3.89,0,0,1,.76-.06h1.43l0-.08h-1.47a3.89,3.89,0,0,0-.76.06c-.2,0-.3.07-.32.12l-.18.35c-1.19,0-2.24,0-3.15.1s-1.69.16-2.31.26a6.86,6.86,0,0,0-1.43.37c-.33.13-.5.27-.5.41l0,0C242.61,390.19,242.77,390.06,243.07,389.94Z"/><path class="cls-13" d="M254.19,392.11s0,0,0,0c-.05.15-.34.27-.87.37a17.47,17.47,0,0,1-2.55.2l0,.08a16.64,16.64,0,0,0,2.59-.2C253.9,392.42,254.19,392.28,254.19,392.11Z"/><path class="cls-13" d="M243.26,392.39l.56,0a6.8,6.8,0,0,1,.76,0l.92.1,1.18.12c.44,0,1,.07,1.56.08l.62-1.24h0l-.58,1.16q-.9,0-1.56-.09c-.44,0-.84-.07-1.18-.11l-.92-.1a6.91,6.91,0,0,0-.76-.05,5,5,0,0,0-.56,0,3,3,0,0,0-.43.07l-1.23.31.21,0,1-.26A3,3,0,0,1,243.26,392.39Z"/><path class="cls-14" d="M244.42,393.11c1.1.08,2.26.14,3.51.17h0l-.25.51,0,.09h1.47a4,4,0,0,0,.76-.06c.19,0,.3-.07.32-.11l.2-.41c1.2,0,2.27-.06,3.21-.13s1.73-.17,2.37-.29a5.78,5.78,0,0,0,1.46-.4c.33-.15.5-.31.5-.48,0,0,0,0,0,0s-.21-.29-.55-.39a8.05,8.05,0,0,0-1.48-.29c-.61-.08-1.3-.15-2.06-.2l-2.3-.13,0-.08.53-1.07,1.15.06.94.08.76.06.57,0a4.22,4.22,0,0,0,.55,0,3.4,3.4,0,0,0,.46-.08l1-.25-.2,0c-.58-.09-1.23-.17-2-.24s-1.82-.14-3-.17l0-.08.24-.47h-1.47a3.89,3.89,0,0,0-.76.06c-.2,0-.3.07-.32.12l-.18.35c-1.19,0-2.24,0-3.15.11a21.46,21.46,0,0,0-2.31.26,6.36,6.36,0,0,0-1.43.36c-.3.12-.46.25-.48.37s0,0,0,0c0,.19.19.35.55.48a8.32,8.32,0,0,0,1.45.31c.6.08,1.27.15,2,.2l2.23.13h0l-.62,1.24c-.6,0-1.12,0-1.56-.08l-1.18-.12-.92-.1a6.8,6.8,0,0,0-.76,0l-.56,0a3,3,0,0,0-.43.07l-1,.26-.21.06Q242.77,393,244.42,393.11Zm6.34-.47.51-1.05,1.16.09c.36,0,.66.06.93.1a3.51,3.51,0,0,1,.61.14q.18.06.21.15s0,0,0,0-.29.31-.88.41a16.64,16.64,0,0,1-2.59.2Zm-4.41-2.38a.28.28,0,0,1,.17-.14,2.36,2.36,0,0,1,.59-.15,9.76,9.76,0,0,1,1-.12c.41,0,.9-.05,1.48-.06h0l-.5,1-1.14-.09c-.34,0-.64-.07-.89-.11a3.44,3.44,0,0,1-.59-.14c-.14-.06-.21-.12-.21-.19S246.35,390.27,246.35,390.26Z"/><path class="cls-12" d="M272,397.51v-3.28l-.22,0-.58.12-.42.08-.69.13-.35.07-1.07.17-.38.06-.78.11-.48.07-.75.09-.5.06-.84.1-.44.05-1.31.13-.25,0-1.12.1h-.16v9.26A78.4,78.4,0,0,0,272,403.48v-6Zm-7.83,5.61a.88.88,0,0,1-1.75,0v-5.56a.88.88,0,0,1,1.75,0Zm3.34-.44a.88.88,0,0,1-1.76,0v-5.56a.88.88,0,0,1,1.76,0Zm3.33-.61a.88.88,0,0,1-1.75,0v-5.56a.88.88,0,1,1,1.75,0Z"/><path class="cls-13" d="M237.87,396.1v-.46h-.15l-1.13-.1-.24,0-1.31-.13-.44-.05-.84-.1-.5-.06-.75-.1L232,395l-.78-.11-.39-.06-1.06-.17-.35-.07-.7-.13-.41-.08-.58-.12-.22,0v9.25a78.46,78.46,0,0,0,10.33,1.42v-8.8Zm-7,6.2a.88.88,0,0,1-1.76,0v-5.55a.88.88,0,0,1,1.76,0Zm3.33.48a.88.88,0,0,1-.88.88h0a.88.88,0,0,1-.87-.88v-5.56a.87.87,0,0,1,.87-.87h0a.87.87,0,0,1,.88.87Zm3.34.48a.88.88,0,0,1-1.76,0V397.7a.88.88,0,0,1,1.76,0Z"/><path class="cls-14" d="M261.7,396.1v-.46l-.31,0-1.07.08-.54,0-1.19.07-.32,0h-.06l-1.72.08-.56,0-1.57,0H254l-1.76,0h-5l-1.75,0h-.33l-1.57,0-.55,0-1.72-.08h-.06l-.32,0-1.19-.07-.54,0-1.07-.08-.32,0v9.26c3.62.29,7.66.45,11.92.45s8.29-.16,11.91-.45v-8.8Zm-20.84,7.39a.88.88,0,1,1-1.75,0v-5.55a.88.88,0,1,1,1.75,0Zm3.34.35a.88.88,0,1,1-1.75,0v-5.56a.88.88,0,0,1,1.75,0Zm3.33,0a.88.88,0,1,1-1.75,0v-5.56a.88.88,0,0,1,1.75,0Zm3.34.2a.88.88,0,1,1-1.75,0v-5.56a.88.88,0,0,1,1.75,0Zm3.34-.2a.88.88,0,0,1-1.76,0v-5.56a.88.88,0,0,1,1.76,0Zm3.33,0a.88.88,0,1,1-1.75,0v-5.56a.88.88,0,0,1,1.75,0Zm3.34-.35a.88.88,0,0,1-1.76,0v-5.55a.88.88,0,0,1,1.76,0Z"/><path class="cls-14" d="M278,391.24h0a.85.85,0,0,1,0,.23l0,.07a.77.77,0,0,1-.07.16.56.56,0,0,1-.05.08l-.11.15-.07.08-.16.16-.08.07-.26.19,0,0a3.13,3.13,0,0,1-.36.22l-.09.05-.33.16a.61.61,0,0,1-.14.07,2.52,2.52,0,0,1-.33.14l-.16.07-.38.14-.16.06-.5.17-.08,0-.66.19-.06,0-.63.17-.18,0-.56.14-.22.05-.25.06v9.25c3.75-.82,6-1.86,6-3v-9.26Zm-3.8,10.28a.88.88,0,1,1-1.75,0V396a.88.88,0,1,1,1.75,0Zm3.14-.91a.88.88,0,0,1-1.76,0v-5.56a.88.88,0,0,1,1.76,0Z"/><path class="cls-13" d="M221.56,391.24h0a.85.85,0,0,0,0,.23l0,.07a.77.77,0,0,0,.07.16.22.22,0,0,0,.05.08l.11.15a.27.27,0,0,0,.07.08l.16.16.08.07a2.93,2.93,0,0,0,.26.19l0,0a3.13,3.13,0,0,0,.36.22l.09.05.32.16.15.07a2.52,2.52,0,0,0,.33.14l.16.07.38.14.16.06.49.17.09,0,.66.19.05,0,.63.17.19,0,.55.14.23.05.47.1.58.12.41.08.7.13.35.07,1.06.17.39.06.78.11.48.06.75.1.5.06.84.1.44.05,1.31.13.24,0,1.13.1.47,0,1.07.08.54,0,1.19.07.38,0,1.72.08.55,0,1.57,0h.33l1.75,0h5l1.76,0h.32l1.57,0,.56,0,1.72-.08.38,0,1.19-.07.54,0,1.07-.08.47,0,1.12-.1.25,0,1.31-.13.44-.05.84-.1.5-.06.75-.09.48-.07.78-.11.38-.06,1.07-.17.35-.07.69-.13.42-.08.58-.12.47-.1.22-.05.56-.14.18,0,.63-.17.06,0,.66-.19.08,0,.5-.17.16-.06.38-.14.16-.07a2.52,2.52,0,0,0,.33-.14.61.61,0,0,0,.14-.07l.33-.16.09-.05a3.13,3.13,0,0,0,.36-.22l0,0,.26-.19.08-.07.16-.16.07-.08.11-.15a.56.56,0,0,0,.05-.08.77.77,0,0,0,.07-.16l0-.07a.85.85,0,0,0,0-.23h0c0-2.67-12.65-4.84-28.23-4.84s-28.22,2.17-28.23,4.85h0Zm49.88,0c0,1-2.28,1.9-6,2.57,2.75-.62,4.39-1.39,4.39-2.22,0-2-9.48-3.64-21.16-3.64-9.26,0-17.12,1-20,2.45,2.21-1.65,10.81-2.88,21.09-2.88C261.75,387.52,271.44,389.18,271.44,391.24Zm-29.84,1.45,1.23-.31a3,3,0,0,1,.43-.07,5,5,0,0,1,.56,0,6.91,6.91,0,0,1,.76.05l.92.1c.34,0,.74.08,1.18.11s1,.07,1.56.09l.58-1.16-2.23-.13c-.75,0-1.42-.12-2-.2a8.32,8.32,0,0,1-1.45-.31c-.36-.13-.55-.29-.55-.48,0,0,0,0,0,0l0,0c0-.14.17-.28.5-.41a6.86,6.86,0,0,1,1.43-.37c.62-.1,1.39-.19,2.31-.26s2-.1,3.15-.1l.18-.35s.12-.09.32-.12a3.89,3.89,0,0,1,.76-.06h1.47l0,.08h0l-.24.47c1.13,0,2.1.09,2.92.16s1.55.17,2.17.27l-.2.06.2,0-1,.25a3.4,3.4,0,0,1-.46.08,4.22,4.22,0,0,1-.55,0l-.57,0-.76-.06-.94-.08-1.15-.06-.53,1.07,2.26.13c.76.05,1.45.11,2.06.19a10.18,10.18,0,0,1,1.48.29c.37.12.56.26.56.44v0s0,0,0,0c0,.17-.17.33-.5.48a5.78,5.78,0,0,1-1.46.4c-.64.12-1.43.21-2.37.29s-2,.11-3.21.13l-.2.41s-.13.08-.32.11a4,4,0,0,1-.76.06h-1.47l0-.09h0l.25-.51c-1.25,0-2.41-.09-3.51-.17s-2-.2-2.82-.33l.21-.06Z"/><path class="cls-14" d="M227.54,397.51v-3.28l-.25-.06-.23-.05-.55-.14-.19,0-.63-.17-.05,0-.66-.19-.09,0-.49-.17-.16-.06-.38-.14-.16-.07a2.52,2.52,0,0,1-.33-.14l-.15-.07-.32-.16-.09-.05a3.13,3.13,0,0,1-.36-.22l0,0a2.93,2.93,0,0,1-.26-.19l-.08-.07-.16-.16a.27.27,0,0,1-.07-.08l-.11-.15a.22.22,0,0,1-.05-.08.77.77,0,0,1-.07-.16l0-.07a.85.85,0,0,1,0-.23h0v9.26c0,1.12,2.23,2.16,6,3v-6Zm-3.36,3.1a.88.88,0,0,1-1.75,0v-5.56a.88.88,0,0,1,1.75,0Zm3.15.95a.89.89,0,0,1-.88.88h0a.88.88,0,0,1-.88-.88V396a.87.87,0,0,1,.88-.87h0a.88.88,0,0,1,.88.87Z"/><path class="cls-15" d="M236.65,396.82a.89.89,0,0,0-.88.88v5.56a.88.88,0,0,0,1.76,0V397.7A.89.89,0,0,0,236.65,396.82Z"/><path class="cls-13" d="M240,397.06a.87.87,0,0,0-.88.88v5.55a.88.88,0,1,0,1.75,0v-5.55A.87.87,0,0,0,240,397.06Z"/><path class="cls-13" d="M243.32,397.41a.87.87,0,0,0-.87.87v5.56a.88.88,0,1,0,1.75,0v-5.56A.87.87,0,0,0,243.32,397.41Z"/><path class="cls-13" d="M246.66,397.41a.87.87,0,0,0-.88.87v5.56a.88.88,0,1,0,1.75,0v-5.56A.87.87,0,0,0,246.66,397.41Z"/><path class="cls-13" d="M250,397.61a.87.87,0,0,0-.87.87V404a.88.88,0,1,0,1.75,0v-5.56A.87.87,0,0,0,250,397.61Z"/><path class="cls-13" d="M273.34,395.09a.87.87,0,0,0-.87.88v5.55a.88.88,0,1,0,1.75,0V396A.87.87,0,0,0,273.34,395.09Z"/><path class="cls-14" d="M270,395.63a.88.88,0,0,0-.88.88v5.56a.88.88,0,0,0,1.75,0v-5.56A.88.88,0,0,0,270,395.63Z"/><path class="cls-14" d="M266.67,396.25a.88.88,0,0,0-.88.87v5.56a.88.88,0,0,0,1.76,0v-5.56A.87.87,0,0,0,266.67,396.25Z"/><path class="cls-14" d="M263.34,396.69a.87.87,0,0,0-.88.87v5.56a.88.88,0,0,0,1.75,0v-5.56A.87.87,0,0,0,263.34,396.69Z"/><path class="cls-13" d="M260,397.06a.88.88,0,0,0-.88.88v5.55a.88.88,0,0,0,1.76,0v-5.55A.88.88,0,0,0,260,397.06Z"/><path class="cls-13" d="M256.66,397.41a.87.87,0,0,0-.87.87v5.56a.88.88,0,1,0,1.75,0v-5.56A.87.87,0,0,0,256.66,397.41Z"/><path class="cls-13" d="M253.33,397.41a.87.87,0,0,0-.88.87v5.56a.88.88,0,0,0,1.76,0v-5.56A.88.88,0,0,0,253.33,397.41Z"/><path class="cls-13" d="M276.48,394.18a.88.88,0,0,0-.88.87v5.56a.88.88,0,0,0,1.76,0v-5.56A.87.87,0,0,0,276.48,394.18Z"/><path class="cls-15" d="M233.31,396.35h0a.87.87,0,0,0-.87.87v5.56a.88.88,0,0,0,.87.88h0a.88.88,0,0,0,.88-.88v-5.56A.87.87,0,0,0,233.31,396.35Z"/><path class="cls-15" d="M230,395.87a.87.87,0,0,0-.88.88v5.55a.88.88,0,0,0,1.76,0v-5.55A.88.88,0,0,0,230,395.87Z"/><path class="cls-13" d="M226.45,395.13h0a.87.87,0,0,0-.88.87v5.56a.88.88,0,0,0,.88.88h0a.89.89,0,0,0,.88-.88V396A.88.88,0,0,0,226.45,395.13Z"/><path class="cls-13" d="M223.31,394.18a.87.87,0,0,0-.88.87v5.56a.88.88,0,0,0,1.75,0v-5.56A.87.87,0,0,0,223.31,394.18Z"/><path class="cls-16" d="M150.41,117.55V88.74a12.64,12.64,0,0,1,12.81-12.81A12.45,12.45,0,0,1,176,88.74v28.81h42.25a11.81,11.81,0,0,1,11.85,11.84,12,12,0,0,1-11.85,11.84H176v72.35c0,29.77,17,45.77,42.25,45.77a12,12,0,0,1,0,24c-39.69,0-67.86-26.89-67.86-69.78v-96Z"/><g class="cls-17"><polygon class="cls-18" points="285.88 318.44 82.75 318.44 82.75 37.6 285.88 318.44"/></g><polygon class="cls-19" points="36.11 402.18 36.8 409.75 41.91 409.3 40.45 400.05 36.11 402.18"/><path class="cls-20" d="M53,307.81s-5.2,8.4-5.19,23.73S45.65,361,40.94,374.39c-6.84,19.4-9.23,28.58-8.16,29.24,1.79,1.11,10,0,10,0s18.38-35.17,20.3-40.38,8.73-29.8,8.73-29.8l-6-21.11Z"/><path class="cls-21" d="M41.17,407.59s10.7-2.25,10.42,5.12l-16.6.15.19-4.65Z"/><polygon class="cls-19" points="82.77 403.17 82.5 412.19 78.97 413.94 78.68 403.47 82.77 403.17"/><path class="cls-20" d="M82.42,309.14a150.69,150.69,0,0,1,7.21,38.61C90.74,369.27,85,405.5,85,405.5H76.23s-1.1-31.37,0-40.39c0,0-9.93-18.21-11.84-25.19s-5.79-29.82-5.79-29.82Z"/><path class="cls-21" d="M96.33,415.16s.74-7.59-14.23-6l-4.49.77v6Z"/><path class="cls-19" d="M71.39,243s4.48-10.25-5.56-12.81l-11.4,6.88,1.47,22.72L69,253.61l.29-7.52Z"/><path class="cls-19" d="M44.12,289.87s-9.21,48.47-10,44.26c-1.29-7.08-3.29,3.09-4.88,3.35s-3.17-6.15-1.06-7.43S34,323.23,34,323.23Z"/><path class="cls-19" d="M99.37,238.25s7.34-4.32,7.34-7.14S109,204.84,108,204.33s.49-6.35-1.63-7.38-4.9-1.74-6-4.81-2.38-.25-1.05,3.33-1.32,6.15,2.91,8.46c0,0,7.42,24.34,3.2,28.95Z"/><path class="cls-22" d="M108.89,203.66c-.27-.76-6.52,2.12-6.52,2.12s0,19.06-3.09,24.67c-2.46,4.48-19,15.73-27.2,19.93,0,0-9.31-.19-17.21,3.67-.65.32-.58,3.55-1.22,3.88-5.07,2.66-9.51,5.75-10.7,8.85C39.78,275,32,325.14,32,325.14l7.08,3.63,11.48-50.7s.14,31.5-.65,33.3,29.48,6.89,36.61,3.81c0,0-2-38.05-2.29-48.56,0,0,23.78-23,26.12-34.19C112,224.81,108.89,203.66,108.89,203.66Z"/><path class="cls-20" d="M65.35,248.89c-1.3,1-7.82,2.51-9.59.44s-7.23-7.82-6.94-9.29.59-10.77,5-13.13a26.84,26.84,0,0,1,4.86-2.13c.23-.07,2.06-.7,2.32-.77,3.68-1,7.18-1.1,7.87,1.57,1.18,4.57,2.51,5.6.15,6.19s-3,1.77-2.07,3.69.59,2.51.59,2.51-1.77-2.8-2.66-.44.59,5.61,2.51,4C67.41,241.51,66.68,247.86,65.35,248.89Z"/><path class="cls-23" d="M50.6,279.85c0-.15.1-.3.15-.44s0-.38,0-.59a1.84,1.84,0,0,1,.77-1.42c.67-3.74.78-7.52,1.31-11.31a31.77,31.77,0,0,0,.65-5c0-1.54-.5-2.13-1.41-2.29-4.41,2.46-8.09,5.23-9.17,8C39.78,275,32,325.14,32,325.14l7.08,3.63,11.48-50.7Z"/><path class="cls-24" d="M108.89,203.66c-.27-.76-6.52,2.12-6.52,2.12s0,19.06-3.09,24.67c-2.35,4.28-17.48,14.72-26,19.31.15,5.19,1.06,11.7,4.94,15.4,1.76,1.66,3.79,1.45,6,1.34h.22c1.85-1.81,23.74-23.34,26-34.06C112,224.81,108.89,203.66,108.89,203.66Z"/></g></g></g></svg>