<svg xmlns="http://www.w3.org/2000/svg" viewBox="0 0 74 72.4"><defs><style>.cls-1,.cls-2{fill:none;stroke:#171234;stroke-width:2px;}.cls-1{stroke-miterlimit:10;}.cls-2{stroke-linecap:round;stroke-linejoin:round;}</style></defs><title>Risorsa 7</title><g id="Livello_2" data-name="Livello 2"><g id="content"><path class="cls-1" d="M14.27,32.46v1.71a3.41,3.41,0,0,0,3.41,3.4h3.41a3.4,3.4,0,0,0,3.4-3.4V31.51a3.4,3.4,0,0,0-2.32-3.23L16.6,26.43a3.42,3.42,0,0,1-2.33-3.24V20.54a3.41,3.41,0,0,1,3.41-3.41h3.41a3.41,3.41,0,0,1,3.4,3.41v1.7"/><line class="cls-1" x1="19.38" y1="17.13" x2="19.38" y2="12.02"/><line class="cls-1" x1="19.38" y1="37.57" x2="19.38" y2="42.68"/><polyline class="cls-2" points="52.2 53.8 52.2 71.4 1 71.4 1 1 42.6 1 52.2 10.6 52.2 28.2"/><polyline class="cls-2" points="49 13.8 39.4 13.8 39.4 4.2"/><path class="cls-2" d="M72.53,27.46,43.47,56.52,31.4,61.8l5.28-12.07L65.74,20.67a1.6,1.6,0,0,1,2.27,0l4.52,4.52A1.6,1.6,0,0,1,72.53,27.46Z"/><line class="cls-2" x1="60.09" y1="26.33" x2="66.87" y2="33.11"/><line class="cls-2" x1="28.2" y1="61.8" x2="15.4" y2="61.8"/></g></g></svg>