<svg xmlns="http://www.w3.org/2000/svg" viewBox="0 0 78.2 56.67"><defs><style>.cls-1,.cls-2{fill:none;stroke:#171234;stroke-linecap:round;stroke-width:2px;}.cls-1{stroke-miterlimit:10;}.cls-2{stroke-linejoin:round;}</style></defs><title>Risorsa 3</title><g id="Livello_2" data-name="Livello 2"><g id="content"><path class="cls-1" d="M23.31,32.48l-.74,1.65c-.82,1.83,0,3.32,1.83,3.32h3.31a5.85,5.85,0,0,0,4.8-3.32l.41-.92c.64-1.43.29-2.69-.86-3.15l-4.61-1.8c-1.15-.45-1.5-1.72-.86-3.14l.41-.93a5.83,5.83,0,0,1,4.8-3.31h3.31c1.83,0,2.65,1.48,1.83,3.31l-.74,1.66"/><line class="cls-1" x1="33.45" y1="20.88" x2="35.67" y2="15.91"/><line class="cls-1" x1="26.06" y1="37.45" x2="23.84" y2="42.42"/><path class="cls-2" d="M61.82,9.28c-4.57,0-9.94,3.71-12,8.29L35.79,49H6L20,17.57c2-4.58,7.41-8.29,12-8.29Z"/><path class="cls-2" d="M66.23,14.25c-4.58,0-9.94,3.71-12,8.29L39.46,55.67H7.63"/><path class="cls-1" d="M12.6,22.54H10.94A9.94,9.94,0,0,1,1,12.6V10.94A9.94,9.94,0,0,1,10.94,1H67.26a9.94,9.94,0,0,1,9.94,9.94V12.6a9.94,9.94,0,0,1-9.94,9.94h-5"/></g></g></svg>