<svg xmlns="http://www.w3.org/2000/svg" viewBox="0 0 76.55 78.2"><defs><style>.cls-1,.cls-2{fill:none;stroke:#171234;stroke-width:2px;}.cls-1{stroke-miterlimit:10;}.cls-2{stroke-linecap:round;stroke-linejoin:round;}</style></defs><title>Risorsa 4</title><g id="Livello_2" data-name="Livello 2"><g id="content"><path class="cls-1" d="M64,77.2H59a6.62,6.62,0,0,1-6.62-6.62v-5A6.62,6.62,0,0,1,59,59h5"/><line class="cls-1" x1="49.04" y1="65.61" x2="58.98" y2="65.61"/><line class="cls-1" x1="49.04" y1="70.58" x2="58.98" y2="70.58"/><path class="cls-2" d="M18.81,20.88A24,24,0,0,1,62.3,35v2.49H59L67.26,50.7l8.29-13.25H72.23V35a34,34,0,0,0-34-34"/><path class="cls-2" d="M57.74,47.39A24,24,0,0,1,14.25,33.3V30.82h3.32L9.28,15.91,1,30.82H4.31V33.3a34,34,0,0,0,34,34"/><line class="cls-2" x1="38.33" y1="10.94" x2="38.33" y2="57.46"/><path class="cls-2" d="M38.55,10.94C46,10.94,51.78,21,51.78,34s-6,23.48-13.45,23.48S24.88,47,24.88,34,31.12,10.94,38.55,10.94Z"/><line class="cls-2" x1="17.58" y1="24.96" x2="59.62" y2="24.96"/><line class="cls-2" x1="16.46" y1="42.89" x2="59.09" y2="42.89"/></g></g></svg>