<svg xmlns="http://www.w3.org/2000/svg" viewBox="0 0 58.77 91.71"><defs><style>.cls-1{fill:none;}.cls-1,.cls-2{stroke:#171234;stroke-linecap:round;stroke-linejoin:round;stroke-width:2px;}.cls-2{fill:#fff;}</style></defs><title>Risorsa 8</title><g id="Livello_2" data-name="Livello 2"><g id="content"><path class="cls-1" d="M56,90.71A1.76,1.76,0,0,0,57.71,89l.06-42.78A1.76,1.76,0,0,0,56,44.43H30.66a1.76,1.76,0,0,0-1.75,1.75L28.85,89a1.76,1.76,0,0,0,1.75,1.75Z"/><line class="cls-1" x1="29.8" y1="49.84" x2="57.77" y2="49.84"/><line class="cls-1" x1="57.77" y1="79.41" x2="29.8" y2="79.41"/><circle class="cls-2" cx="43.2" cy="85.21" r="1.17"/><polyline class="cls-1" points="33.62 35.17 33.62 28.96 44.49 28.96 22.75 1 1 28.96 10.32 28.96 10.32 58.47 10.32 67.79 10.32 70.89"/></g></g></svg>