<svg xmlns="http://www.w3.org/2000/svg" viewBox="0 0 77.77 54.11"><defs><style>.cls-1{fill:none;stroke:#171234;stroke-linejoin:round;stroke-width:2px;}</style></defs><title>Risorsa 1</title><g id="Livello_2" data-name="Livello 2"><g id="content"><path class="cls-1" d="M60.36.75s-6,5.34-6.59,5.43C52,6.47,43.85,2.66,42.21,2.25S24.24,7,23,9s3.61,6.62,8.25,6S42.83,12,44.84,14c3.26,3.25,12.77,13.23,17.27,17.2,3.76,3.33,14.81-13.87,14.81-13.87"/><line class="cls-1" x1="40.36" y1="49.06" x2="34.99" y2="43.61"/><line class="cls-1" x1="49.26" y1="46.12" x2="39.86" y2="35.97"/><line class="cls-1" x1="57.34" y1="41.41" x2="46.17" y2="29.84"/><path class="cls-1" d="M21.43,49a3.31,3.31,0,0,0,4.69,0l2.94-2.94c1.25-1.25.93-3.3-.53-4.76s-3.5-1.78-4.75-.53c1.25-1.25.93-3.3-.53-4.76s-3.51-1.78-4.76-.52c1.25-1.26.93-3.3-.53-4.76S14.45,29,13.2,30.21c1.25-1.25.93-3.3-.53-4.76s-3.5-1.78-4.75-.53L5,27.87a3.31,3.31,0,0,0,0,4.68Z"/><path class="cls-1" d="M27.46,47.67l1,1L31,51.24c3.86,3.87,7.47,1,9.33-2.18a6.78,6.78,0,0,0,8.9-2.94c4.48,2.21,8.4-2.37,8.08-4.71a6.36,6.36,0,0,0,4.77-10.23"/><path class="cls-1" d="M.72,19l3.54,3.67a11.32,11.32,0,0,0,2.16,3.78"/><line class="cls-1" x1="23.25" y1="8.74" x2="17.29" y2="2.78"/><line class="cls-1" x1="13.2" y1="30.21" x2="8" y2="35.58"/><line class="cls-1" x1="13.2" y1="30.21" x2="8" y2="35.58"/><line class="cls-1" x1="18.49" y1="35.5" x2="13.29" y2="40.87"/><line class="cls-1" x1="23.78" y1="40.78" x2="18.57" y2="46.15"/></g></g></svg>