<svg xmlns="http://www.w3.org/2000/svg" viewBox="0 0 70.5 63.1"><defs><style>.cls-1,.cls-2{fill:none;stroke:#171234;stroke-width:2px;}.cls-1{stroke-miterlimit:10;}.cls-2{stroke-linecap:round;stroke-linejoin:round;}</style></defs><title>Risorsa 5</title><g id="Livello_2" data-name="Livello 2"><g id="content"><path class="cls-1" d="M32.66,32.69,31.45,33.9a3.41,3.41,0,0,0,0,4.82l2.41,2.4a3.39,3.39,0,0,0,4.82,0l1.88-1.87a3.41,3.41,0,0,0,.63-3.93l-2.62-5.25a3.41,3.41,0,0,1,.64-3.93l1.88-1.88a3.41,3.41,0,0,1,4.82,0l2.4,2.41a3.41,3.41,0,0,1,0,4.82l-1.2,1.2"/><line class="cls-1" x1="47.11" y1="25.47" x2="50.72" y2="21.85"/><line class="cls-1" x1="32.66" y1="39.92" x2="29.04" y2="43.53"/><polyline class="cls-2" points="14.12 30.04 8.29 35.87 34.52 62.1 69.5 27.13 47.64 5.26 43.16 1 31.61 12.55"/><line class="cls-2" x1="30.15" y1="16.92" x2="11.2" y2="16.92"/><line class="cls-2" x1="24.32" y1="8.18" x2="5.37" y2="8.18"/><line class="cls-2" x1="22.86" y1="25.67" x2="1" y2="25.67"/></g></g></svg>