<svg xmlns="http://www.w3.org/2000/svg" viewBox="0 0 23.17 18.47"><defs><style>.cls-1{fill:none;stroke:#7fff9c;stroke-linejoin:round;stroke-width:2px;}</style></defs><title>wallet_top_up</title><g id="Livello_2" data-name="Livello 2"><g id="side_bar_navigation" data-name="side bar navigation"><path class="cls-1" d="M18.88,2.88V1H2.41A1.38,1.38,0,0,0,1,2.41"/><path class="cls-1" d="M21.23,13.23v4.24H2.41A1.39,1.39,0,0,1,1,16.05V2.41A1.38,1.38,0,0,0,2.41,3.82H21.23V7.59"/><path class="cls-1" d="M15.58,8.53a2.27,2.27,0,0,0-2.35,2.35,2.27,2.27,0,0,0,2.35,2.35h5.18a1.41,1.41,0,0,0,1.41-1.41V8.06a.47.47,0,0,0-.47-.47h-.47a1,1,0,0,1-.94.94H15.58"/><line class="cls-1" x1="15.11" y1="10.88" x2="16.05" y2="10.88"/></g></g></svg>